<svg xmlns:xlink="http://www.w3.org/1999/xlink" xmlns="http://www.w3.org/2000/svg" id="Lager_1" data-name="Lager 1" viewBox="0 0 1720.4 2889.98" width="1720.4"  height="2889.98" >
  <defs>
    <style>
      .cls-1 {
        fill: #0287c9;
      }

      .cls-2 {
        fill: #241c19;
      }

      .cls-3 {
        fill: #211915;
      }

      .cls-4 {
        fill: #0187c9;
      }

      .cls-5 {
        fill: #29211d;
      }

      .cls-6 {
        fill: #29211e;
      }

      .cls-7 {
        fill: #feee00;
      }

      .cls-8 {
        fill: #bf0b11;
      }

      .cls-9 {
        fill: #5a5551;
      }

      .cls-10 {
        fill: #bf0811;
      }

      .cls-11 {
        fill: #221a15;
      }

      .cls-12 {
        fill: #261e1a;
      }

      .cls-13 {
        fill: #231c18;
      }
    </style>
  </defs>
  <path class="cls-11" d="M0,2582C0,1721.33,0,860.67,0,0H1720.4V2582c-3.65-.11-7.31-.31-10.96-.31-566.16-.01-1132.32-.01-1698.48,0-3.65,0-7.31,.2-10.96,.31Zm69.82-597.85c-1.99,3.03-3.86,6.15-5.99,9.07-17.59,24.12-35.25,48.18-52.81,72.32-1.7,2.33-4.28,4.24-4.41,8.63,20.89,2.86,42.14,.93,62.99,3.92,0,140.66-.02,281.31,.04,421.97,0,16.06-1.98,13.56,13.84,13.56,518.15,.05,1036.29,.04,1554.44,.04q14.86,0,14.86-14.61c0-805.27,0-1610.55,0-2415.82,0-2.33,.04-4.67,0-7q-.16-7.71-7.59-7.88c-1-.02-2,0-3,0-53.28,0-106.56,0-159.84,.02-3.31,0-6.67-.41-9.91,.72-4.89-1.52-9.92-.8-14.88-.8-457.13-.04-914.26-.04-1371.39,0-18.97,0-16.44-2.48-16.44,16.34-.04,627.85-.04,1255.69-.03,1883.54,0,5.33,.08,10.66,.12,15.99Z"/>
  <path class="cls-13" d="M1671.46,2889.98c-12.79-10.11-26.77-18.49-40.26-27.57-40.88-27.5-81.88-54.82-122.85-82.19-1.86-1.24-3.79-2.37-5.92-3.69-1.83,3.87-1.09,7.19-1.1,10.38-.06,30.33-.04,60.66-.04,91,0,9.21,1.18,9.54-8.98,9.51-15.65-.05-31.3,.03-46.95-.03-7.91-.03-8-.11-8.01-8.37-.03-51-.03-102,0-152.99,0-7.58,.13-7.65,7.6-7.7,9.99-.07,19.99,.22,29.97-.11,5.6-.19,10.19,1.33,14.83,4.45,51.69,34.69,103.48,69.23,155.25,103.79,2.96,1.98,6.02,3.81,9.6,6.06,1.5-3.12,1-5.76,1-8.24,.04-31,0-62,.04-93,.01-8.15,.1-8.25,8.16-8.28,15.98-.07,31.97,.03,47.95-.08,2.54-.02,5.32,1.05,7.66-.93v4c-3.04,3.44-1.72,7.63-1.73,11.47-.16,50.84-.2,101.68-.27,152.53h-45.96Z"/>
  <path class="cls-9" d="M1717.42,2889.98c.07-50.84,.11-101.69,.27-152.53,.01-3.85-1.31-8.03,1.73-11.47,0,53,.03,106-.14,159,0,1.49,2.57,4.84-1.86,5Z"/>
  <path class="cls-7" d="M1471.46,69.06c3.24-1.14,6.6-.72,9.91-.72,53.28-.02,106.56-.02,159.84-.02,1,0,2-.02,3,0q7.42,.17,7.59,7.88c.05,2.33,0,4.67,0,7,0,805.27,0,1610.55,0,2415.82q0,14.61-14.86,14.61c-518.15,0-1036.29,0-1554.44-.04-15.83,0-13.84,2.5-13.84-13.56-.06-140.66-.04-281.31-.04-421.97,3.32-.05,6.64-.28,9.95-.13,28.26,1.27,56.53,2.26,84.75,4.13,8.36,.55,13.17-2.09,18.04-8.72,102.75-139.77,205.73-279.36,308.66-418.99,153.51-208.24,307.01-416.48,460.51-624.72,3.94,2.49,7.92,4.9,11.8,7.47,105.84,69.91,211.66,139.85,317.52,209.72,2.95,1.94,5.47,4.93,10.42,5.06,16.56-250.65,33.11-501.23,49.66-751.8,3.01-1.75,4.44-4.87,6.39-7.5,32.41-43.87,64.36-88.09,97.4-131.48,10.68-14.03,16.3-27.96,16.86-46.02,1.98-63.5,6.03-126.94,8.79-190.43,.79-18.27,2.78-36.51,2.13-54.84l-.03-.75Zm-469.91,1492.76c-3.08,.84-3.57,2.59-4.37,3.98-81.96,142.58-163.9,285.18-245.82,427.79-.12,.21,.07,.62,.18,.92,.11,.29,.31,.54,.22,.4h496.77c-82.79-145.18-164.86-289.07-246.98-433.08Zm197.23,677.07c-8.36-9.09-17.25-16.08-26.73-22.2-62.46-40.34-130.87-56.04-204.6-48.26-18.59,1.96-36.56,7.19-52.97,16.68-16.51,9.54-28.69,22.55-33.06,41.76-2.87,12.62-2.52,13.17,9.9,13.17,99.18,0,198.37,.01,297.55-.03,2.91,0,5.91,.64,9.91-1.12Z"/>
  <path class="cls-10" d="M1471.46,69.06s.03,.75,.03,.76c-2.5,3.08-5.14,6.06-7.48,9.26-96.73,132.11-193.45,264.23-290.13,396.39-19.65,26.86-39.11,53.84-58.66,80.77-5.1,4.45-11.4,6.82-17.33,9.79-157.18,78.74-314.38,157.42-471.56,236.16-3.14,1.57-6.68,2.67-9.94,6.26,11.64,7.71,22.66,15,33.68,22.3,59.14,39.15,118.27,78.3,177.41,117.45-2.46,3.56-4.82,7.19-7.38,10.68-240.42,328.5-480.83,657-721.32,985.44-9.81,13.4-18.88,27.37-29.95,39.83-.04-5.33-.12-10.66-.12-15.99,0-627.85-.01-1255.69,.03-1883.54,0-18.82-2.53-16.34,16.44-16.34,457.13-.04,914.26-.04,1371.39,0,4.96,0,9.99-.72,14.88,.8Z"/>
  <path class="cls-4" d="M68.84,1984.13c11.06-12.46,20.13-26.43,29.95-39.83,240.49-328.44,480.91-656.94,721.32-985.44,2.55-3.49,4.92-7.11,7.37-10.67,18.07,11.84,36.19,23.6,54.2,35.53,23,15.24,45.9,30.61,68.84,45.92-153.5,208.24-307,416.48-460.51,624.72-102.93,139.63-205.92,279.22-308.66,418.99-4.87,6.63-9.69,9.28-18.04,8.72-28.22-1.87-56.49-2.86-84.75-4.13-3.31-.15-6.63,.08-9.95,.13-20.85-2.99-42.1-1.05-62.99-3.92,.13-4.39,2.71-6.3,4.41-8.63,17.57-24.13,35.23-48.2,52.81-72.32,2.13-2.92,4-6.04,5.99-9.07Z"/>
  <path class="cls-2" d="M300.78,2887.4c-9.81,0-18.35,0-26.88,0-11.32,0-22.65-.22-33.96,.1-4.87,.14-7.96-1.47-10.68-5.5-5.59-8.27-11.83-16.1-17.46-24.35-2.53-3.7-5.41-5.15-9.91-5.13-33.63,.16-67.26,.18-100.88-.02-4.6-.03-7.35,1.74-9.94,5.22-6.36,8.55-13.08,16.83-19.5,25.34-2.16,2.86-4.45,4.44-8.26,4.41-19.92-.16-39.84-.08-59.47-.08-2.12-3.33,.46-4.82,1.7-6.47,39.26-52.14,78.62-104.21,117.85-156.38,3.22-4.29,6.51-6.68,12.32-6.42,11.63,.53,23.3,.35,34.95,.07,4.76-.11,7.9,1.3,10.79,5.26,38.71,52.97,77.59,105.81,116.4,158.7,.91,1.24,1.52,2.69,2.93,5.24Zm-186.92-61.82h75.88c-13.69-20.08-26.62-39.05-40.33-59.17-12.22,20.34-23.6,39.27-35.55,59.17Z"/>
  <path class="cls-5" d="M1175.14,2887.43c-24.98,0-49.95,.03-74.93-.02-8.13-.02-8.23-.12-8.24-8.19-.03-49.33-.03-98.66,0-147.99,0-8.17,.1-8.3,8.1-8.3,50.95-.04,101.9-.04,152.85,0,8.23,0,8.24,.13,8.36,8.14,.04,3,.04,6,0,9-.13,11.02,1.84,11.01-10.53,11-27.31-.03-54.61,0-81.92,0-2,0-4.01,.16-5.99-.03-4.91-.46-7.34,.99-6.97,6.6,.48,7.3,.05,14.66,.14,21.99,.08,7.07,.15,7.24,7.11,7.26,27.31,.07,54.61,.03,81.92,.03,2.33,0,4.67,.09,6.99,0,3.74-.16,5.45,1.34,5.31,5.27-.2,5.99-.14,12-.03,18,.06,3.33-1.28,4.96-4.66,4.87-2.33-.06-4.66,.01-6.99,.01-27.31,0-54.61-.04-81.92,.03-7.59,.02-7.67,.15-7.73,7.64-.08,10,.29,20.01-.14,29.99-.24,5.52,1.9,7.16,6.93,6.64,2.31-.24,4.66-.04,6.99-.04,27.97,0,55.95-.04,83.92,.02,7.45,.02,7.78,.17,7.49,7.78-.25,6.52,3.08,14.76-1.72,19.1-4.22,3.81-12.13,1.12-18.39,1.16-21.98,.14-43.96,.05-65.94,.05Z"/>
  <path class="cls-6" d="M837.1,2722.9c29.96,0,59.92-.03,89.88,.02,7.66,.01,7.7,.12,7.81,7.52,.07,5-.2,10.01,.08,14.99,.25,4.42-1.58,5.73-5.82,5.68-15.98-.17-31.96-.07-47.93-.06-2.33,0-4.66,.11-6.99,0-3.78-.18-5.4,1.47-5.29,5.31,.16,5.66,.03,11.33,.03,16.99,0,34.32,0,68.64,0,102.95,0,2.33-.02,4.66-.03,7-.01,2.82-1.24,4.16-4.24,4.15-18.31-.07-36.62-.06-54.92-.01-2.88,0-4.38-1.16-4.43-4.05-.04-2.33-.05-4.66-.05-7,0-37.32,0-74.63,0-111.95,0-2,.04-4-.01-6-.19-7.15-.2-7.28-7.09-7.36-9.98-.12-19.97-.03-29.96-.03-7.66,0-15.32-.14-22.97,.05-4.14,.1-6.19-1.17-5.96-5.66,.25-4.98-.02-9.99,.07-14.99,.13-7.39,.17-7.51,7.96-7.52,29.96-.05,59.92-.02,89.88-.02Z"/>
  <path class="cls-12" d="M454.73,2804.54c0-24.65-.04-49.3,.02-73.95,.02-7.47,.13-7.59,7.76-7.63,16.31-.08,32.61-.09,48.92,0,6.95,.04,7.09,.19,7.1,7.26,.05,39.3-.01,78.61,.05,117.91,.02,12.42-1.56,11.15,11.15,11.18,23.96,.06,47.92-.03,71.88,.04,6.87,.02,6.91,.17,7.01,7.22,.07,5.33-.07,10.66,.03,15.99,.06,3.27-1.16,5-4.62,4.83-1.99-.1-3.99,0-5.99,0-44.26,0-88.52,0-132.78,0-2,0-4-.08-5.99,0-3.48,.13-4.7-1.68-4.55-4.92,.09-1.99,0-4,0-5.99,0-23.98,0-47.97,0-71.95Z"/>
  <path class="cls-3" d="M950.53,1029.64c-22.94-15.31-45.85-30.69-68.84-45.92-18.01-11.93-36.13-23.69-54.2-35.53-59.13-39.15-118.27-78.3-177.41-117.45-11.02-7.29-22.04-14.59-33.68-22.3,3.27-3.59,6.81-4.68,9.94-6.26,157.18-78.73,314.38-157.42,471.56-236.16,5.93-2.97,12.23-5.34,17.33-9.79,4.5-.32,8.08-2.96,11.9-4.87,68.38-34.17,136.71-68.42,205.1-102.57,3.31-1.65,6.42-4.38,10.8-3.91-1.05,18.78-2.08,36.99-3.1,55.2-16.55,250.57-33.1,501.15-49.66,751.8-4.95-.13-7.48-3.12-10.42-5.06-105.87-69.87-211.69-139.8-317.52-209.72-3.88-2.57-7.87-4.98-11.8-7.47Z"/>
  <path class="cls-11" d="M1001.56,1561.82c82.13,144.01,164.19,287.91,246.98,433.08h-496.77c.09,.15-.11-.11-.22-.4-.11-.29-.3-.71-.18-.92,81.92-142.61,163.86-285.21,245.82-427.79,.8-1.39,1.29-3.14,4.37-3.98Z"/>
  <path class="cls-1" d="M1339.93,500.08c1.02-18.21,2.05-36.43,3.1-55.2-4.38-.47-7.49,2.26-10.8,3.91-68.39,34.15-136.72,68.4-205.1,102.57-3.83,1.91-7.41,4.55-11.9,4.87,19.55-26.93,39.01-53.92,58.66-80.77,96.68-132.15,193.4-264.27,290.13-396.39,2.34-3.2,4.98-6.18,7.48-9.26,.65,18.33-1.33,36.57-2.13,54.84-2.76,63.48-6.81,126.92-8.79,190.43-.56,18.06-6.18,31.99-16.86,46.02-33.04,43.39-64.99,87.61-97.4,131.48-1.95,2.64-3.39,5.75-6.39,7.5Z"/>
  <path class="cls-8" d="M1198.79,2238.89c-4,1.76-7,1.12-9.91,1.12-99.18,.04-198.37,.04-297.55,.03-12.42,0-12.78-.55-9.9-13.17,4.38-19.21,16.56-32.22,33.06-41.76,16.41-9.49,34.38-14.72,52.97-16.68,73.73-7.78,142.14,7.93,204.6,48.26,9.48,6.12,18.37,13.11,26.73,22.2Z"/>
</svg>