<svg version="1.1" id="Layer_1" xmlns="http://www.w3.org/2000/svg" xmlns:xlink="http://www.w3.org/1999/xlink" x="0px" y="0px"
	 width="100%" viewBox="0 0 150 107" enable-background="new 0 0 150 107" xml:space="preserve">
<path fill="#0164B2" opacity="1.000000" stroke="none" 
	d="
M96.000000,108.000000 
	C64.000000,108.000000 32.500000,108.000000 1.000000,108.000000 
	C1.000000,72.333336 1.000000,36.666668 1.000000,1.000000 
	C51.000000,1.000000 101.000000,1.000000 151.000000,1.000000 
	C151.000000,36.666668 151.000000,72.333336 151.000000,108.000000 
	C132.833328,108.000000 114.666664,108.000000 96.000000,108.000000 
M28.995571,63.973381 
	C30.025803,63.367035 31.813473,62.908199 31.964888,62.130707 
	C33.049927,56.559139 36.965771,56.438438 41.322811,56.781055 
	C43.115162,56.921993 44.927841,56.804394 47.109947,56.804394 
	C46.374023,59.394150 45.775684,61.499737 45.073803,63.969696 
	C48.872890,63.969696 52.198715,64.093086 55.506413,63.902241 
	C56.651649,63.836170 58.390034,63.281487 58.768715,62.452583 
	C61.161800,57.214348 63.248978,51.836357 65.430420,46.520874 
	C64.582001,46.153568 64.260986,45.875145 63.992992,45.919205 
	C58.889648,46.758232 51.912590,42.531120 49.624897,51.201744 
	C49.518131,51.606407 48.195312,51.874062 47.432198,51.890141 
	C43.983150,51.962791 40.531708,51.921886 36.802635,51.921886 
	C37.294487,49.709976 37.673279,48.006512 38.156441,45.833691 
	C34.317318,45.833691 30.837923,45.717915 27.375900,45.912006 
	C26.467201,45.962948 25.162436,46.774460 24.805696,47.577175 
	C22.469376,52.834282 20.343376,58.184856 17.955395,63.973434 
	C21.805761,63.973434 24.958927,63.973434 28.995571,63.973381 
M86.456429,60.041721 
	C85.459061,60.005459 84.336082,60.249847 83.491638,59.871902 
	C81.945534,59.179924 79.636703,58.339363 79.357323,57.156525 
	C79.035378,55.793530 80.175568,53.575272 81.366295,52.460979 
	C84.866966,49.185043 89.221603,49.524853 93.601334,50.317226 
	C98.349907,51.176338 103.127235,51.876499 107.892029,52.645977 
	C108.182022,51.994965 108.472015,51.343952 108.762009,50.692940 
	C107.288597,49.454857 106.000381,47.560444 104.312050,47.084045 
	C92.381393,43.717571 80.582977,43.779949 69.700363,50.450909 
	C67.623550,51.723976 65.260124,55.164448 65.631447,57.107624 
	C66.063972,59.371040 69.047630,62.151665 71.463257,62.854042 
	C80.921417,65.604141 90.534355,65.222336 99.905205,62.038914 
	C101.779144,61.402306 103.393669,60.002083 105.127815,58.953957 
	C104.937523,58.373589 104.747238,57.793217 104.556946,57.212845 
	C98.809921,58.147335 93.062889,59.081821 86.456429,60.041721 
M117.034088,45.841389 
	C116.323463,46.156105 115.196205,46.288486 114.966377,46.813625 
	C112.550400,52.333870 110.277855,57.916885 107.766464,63.962105 
	C118.444283,63.962105 128.243774,64.076317 138.034760,63.839165 
	C139.505783,63.803539 140.937012,62.124825 142.386658,61.206184 
	C142.157059,60.649773 141.927460,60.093361 141.697861,59.536949 
	C135.852905,59.536949 130.007935,59.536949 123.518440,59.536949 
	C125.423782,54.641479 127.024590,50.528454 128.853012,45.830635 
	C124.815720,45.830635 121.364868,45.830635 117.034088,45.841389 
z"/>
<path fill="#F3F8F9" opacity="1.000000" stroke="none" 
	d="
M28.553831,63.973408 
	C24.958927,63.973434 21.805761,63.973434 17.955395,63.973434 
	C20.343376,58.184856 22.469376,52.834282 24.805696,47.577175 
	C25.162436,46.774460 26.467201,45.962948 27.375900,45.912006 
	C30.837923,45.717915 34.317318,45.833691 38.156441,45.833691 
	C37.673279,48.006512 37.294487,49.709976 36.802635,51.921886 
	C40.531708,51.921886 43.983150,51.962791 47.432198,51.890141 
	C48.195312,51.874062 49.518131,51.606407 49.624897,51.201744 
	C51.912590,42.531120 58.889648,46.758232 63.992992,45.919205 
	C64.260986,45.875145 64.582001,46.153568 65.430420,46.520874 
	C63.248978,51.836357 61.161800,57.214348 58.768715,62.452583 
	C58.390034,63.281487 56.651649,63.836170 55.506413,63.902241 
	C52.198715,64.093086 48.872890,63.969696 45.073803,63.969696 
	C45.775684,61.499737 46.374023,59.394150 47.109947,56.804394 
	C44.927841,56.804394 43.115162,56.921993 41.322811,56.781055 
	C36.965771,56.438438 33.049927,56.559139 31.964888,62.130707 
	C31.813473,62.908199 30.025803,63.367035 28.553831,63.973408 
z"/>
<path fill="#EEF6F7" opacity="1.000000" stroke="none" 
	d="
M86.886147,60.029015 
	C93.062889,59.081821 98.809921,58.147335 104.556946,57.212845 
	C104.747238,57.793217 104.937523,58.373589 105.127815,58.953957 
	C103.393669,60.002083 101.779144,61.402306 99.905205,62.038914 
	C90.534355,65.222336 80.921417,65.604141 71.463257,62.854042 
	C69.047630,62.151665 66.063972,59.371040 65.631447,57.107624 
	C65.260124,55.164448 67.623550,51.723976 69.700363,50.450909 
	C80.582977,43.779949 92.381393,43.717571 104.312050,47.084045 
	C106.000381,47.560444 107.288597,49.454857 108.762009,50.692940 
	C108.472015,51.343952 108.182022,51.994965 107.892029,52.645977 
	C103.127235,51.876499 98.349907,51.176338 93.601334,50.317226 
	C89.221603,49.524853 84.866966,49.185043 81.366295,52.460979 
	C80.175568,53.575272 79.035378,55.793530 79.357323,57.156525 
	C79.636703,58.339363 81.945534,59.179924 83.491638,59.871902 
	C84.336082,60.249847 85.459061,60.005459 86.886147,60.029015 
z"/>
<path fill="#F3F9F9" opacity="1.000000" stroke="none" 
	d="
M117.474052,45.836014 
	C121.364868,45.830635 124.815720,45.830635 128.853012,45.830635 
	C127.024590,50.528454 125.423782,54.641479 123.518440,59.536949 
	C130.007935,59.536949 135.852905,59.536949 141.697861,59.536949 
	C141.927460,60.093361 142.157059,60.649773 142.386658,61.206184 
	C140.937012,62.124825 139.505783,63.803539 138.034760,63.839165 
	C128.243774,64.076317 118.444283,63.962105 107.766464,63.962105 
	C110.277855,57.916885 112.550400,52.333870 114.966377,46.813625 
	C115.196205,46.288486 116.323463,46.156105 117.474052,45.836014 
z"/>
</svg>