<svg version="1.1" id="Layer_1" xmlns="http://www.w3.org/2000/svg" xmlns:xlink="http://www.w3.org/1999/xlink" x="0px" y="0px"
	 width="100%" viewBox="0 0 200 200" enable-background="new 0 0 200 200" xml:space="preserve">
<path fill="#F4A432" opacity="1.000000" stroke="none" 
	d="
M110.000000,201.000000 
	C73.355949,201.000000 37.211899,201.000000 1.033923,201.000000 
	C1.033923,134.397644 1.033923,67.795280 1.033923,1.096454 
	C67.560547,1.096454 134.121292,1.096454 200.841003,1.096454 
	C200.841003,67.666367 200.841003,134.333145 200.841003,201.000000 
	C170.795563,201.000000 140.647781,201.000000 110.000000,201.000000 
M86.109550,109.505096 
	C86.266335,109.569862 86.423119,109.634621 86.986778,109.888283 
	C88.015335,109.412361 89.043892,108.936432 90.507477,108.256851 
	C90.747818,107.853104 90.988159,107.449364 91.072212,107.076775 
	C91.072212,107.076775 91.106499,107.232407 91.557983,107.024635 
	C91.557983,107.024635 91.871674,106.639137 92.332626,106.269806 
	C92.195320,104.269638 92.058006,102.269470 91.898346,100.082092 
	C91.898346,100.082092 91.720924,100.018295 91.442947,99.448280 
	C88.085022,96.043091 84.310532,96.191879 79.699028,98.275803 
	C79.135780,98.572586 78.572525,98.869370 77.587120,99.153938 
	C76.666748,100.129730 75.746376,101.105522 74.328949,102.663147 
	C74.244049,102.904121 74.159149,103.145103 73.657433,103.860069 
	C73.203217,105.282677 72.749008,106.705292 72.160355,108.219574 
	C72.160355,108.219574 72.201195,108.377090 71.812408,108.975525 
	C70.848145,110.170731 69.883881,111.365944 68.919609,112.561150 
	C68.134666,111.837128 67.035988,111.261475 66.612694,110.366425 
	C61.696026,99.970009 61.723034,99.957237 52.469135,107.466881 
	C49.739155,103.692619 49.739155,103.692619 46.705303,105.536453 
	C43.442795,110.112167 40.180286,114.687881 36.917778,119.263596 
	C36.144444,119.014633 35.371109,118.765671 34.597775,118.516708 
	C34.040123,111.566856 33.482468,104.617004 32.924812,97.667152 
	C32.024460,97.752548 31.124109,97.837944 30.223757,97.923340 
	C30.223757,103.307457 29.831692,108.732666 30.389784,114.058311 
	C30.667257,116.706116 32.925114,121.408638 33.876385,121.307785 
	C36.974384,120.979340 39.988121,119.041557 42.814293,117.354538 
	C43.986877,116.654594 44.690186,115.073921 45.445423,113.798164 
	C46.094036,112.702515 46.512756,111.470764 47.033138,110.299202 
	C49.489197,113.861046 50.096504,116.310158 51.322266,118.395790 
	C51.835068,119.268326 53.660664,119.369308 55.076881,119.092781 
	C55.123451,117.438286 54.694561,115.571548 55.318153,114.174644 
	C56.519413,111.483734 58.315876,109.058540 59.865520,106.523163 
	C61.251038,108.662323 62.636555,110.801483 64.042419,113.565842 
	C64.151520,113.743538 64.260620,113.921227 64.484489,114.527214 
	C64.693069,114.914032 64.901649,115.300842 65.087059,115.846420 
	C65.087059,115.846420 65.219742,115.936623 65.341667,116.467270 
	C65.927788,116.851357 66.513916,117.235443 67.252182,117.799881 
	C67.252182,117.799881 67.487793,117.812538 67.898628,118.051842 
	C68.937477,117.653244 69.976334,117.254646 71.545357,116.470757 
	C71.671844,116.292641 71.798340,116.114525 72.713776,115.737900 
	C73.512558,115.777985 74.311348,115.818062 75.452171,116.619759 
	C75.599518,116.855858 75.746857,117.091957 75.890266,117.268944 
	C75.890266,117.268944 75.811592,117.208122 76.316788,117.741547 
	C76.494659,117.909889 76.672523,118.078224 76.863655,118.192032 
	C76.863655,118.192032 76.769455,118.141418 77.146324,118.456490 
	C77.146324,118.456490 77.582108,118.683205 77.923340,119.083038 
	C78.384186,119.329750 78.845024,119.576469 79.835373,120.276115 
	C84.170494,120.146034 88.505608,120.015945 93.504997,119.760345 
	C94.973511,118.794685 96.442017,117.829033 98.281967,116.430222 
	C98.844238,115.923080 99.406502,115.415947 100.658745,114.437683 
	C101.504143,115.076492 102.558128,115.561386 103.161324,116.378899 
	C107.296066,121.982620 110.539398,122.003548 114.911201,116.578629 
	C115.822418,115.447906 117.423149,114.872826 119.206276,114.518898 
	C123.602226,116.195549 125.017906,112.543869 127.712341,110.315369 
	C128.280777,111.200386 128.849213,112.085403 129.706223,113.472229 
	C132.982773,116.847610 135.175903,114.496368 136.608780,111.745720 
	C138.324127,108.452797 140.108521,107.679581 143.302689,111.008858 
	C143.529907,113.329414 143.757111,115.649963 143.801849,117.889610 
	C143.568665,117.842125 143.430008,117.918144 142.686188,118.477379 
	C142.455490,118.602043 142.224777,118.726707 141.332092,118.703819 
	C139.558731,119.890465 137.573166,120.878380 136.152542,122.395370 
	C135.769547,122.804359 136.836304,125.655457 137.699234,125.928932 
	C139.713089,126.567146 142.370255,127.064423 144.087311,126.226418 
	C145.855087,125.363640 146.817093,122.849907 148.676743,120.632729 
	C148.808182,120.443298 148.939621,120.253876 149.649155,119.700966 
	C149.744308,119.493790 149.839478,119.286606 150.099167,118.932709 
	C150.196915,118.726387 150.203400,118.520073 150.846558,117.815018 
	C151.252930,117.389694 151.659286,116.964371 152.408539,116.133972 
	C152.778091,115.080688 153.147659,114.027412 153.845566,112.800125 
	C153.845566,112.800125 153.990021,112.457771 154.745667,112.011673 
	C155.993256,112.664024 157.268326,113.269264 158.483337,113.977516 
	C162.239197,116.166878 165.809082,116.582985 169.731445,112.917061 
	C170.552094,111.901779 171.608810,110.998123 172.151169,109.851242 
	C174.143127,105.638893 173.077972,101.907364 170.133972,98.479469 
	C166.924240,94.742180 162.724350,94.079155 158.443283,95.323463 
	C154.868607,96.362450 154.487946,99.692963 154.791290,103.556335 
	C154.802704,103.933472 154.814117,104.310616 154.348740,105.257973 
	C153.565765,107.129822 152.782776,109.001671 151.825394,111.275169 
	C151.717453,111.872505 151.609512,112.469841 151.120193,113.265182 
	C151.120193,113.265182 150.903168,113.636040 150.756180,113.601517 
	C150.756180,113.601517 150.721375,113.852760 149.799301,114.605347 
	C149.508377,114.875092 149.217453,115.144829 148.480103,114.836105 
	C147.942368,113.638367 147.404617,112.440636 146.547180,110.414085 
	C146.394882,110.160133 146.242599,109.906181 146.145432,109.698685 
	C146.145432,109.698685 146.180145,109.721321 145.705017,109.080353 
	C145.331436,108.702705 144.957840,108.325050 144.366791,107.496765 
	C143.951721,107.236191 143.536667,106.975616 143.120163,106.865669 
	C143.120163,106.865669 143.270752,106.861465 143.099503,106.403030 
	C142.715820,106.122185 142.332138,105.841339 141.654312,105.203590 
	C141.654312,105.203590 141.224167,105.033722 140.896957,104.588524 
	C133.917023,100.594711 136.708603,110.084633 132.223419,110.412354 
	C131.625732,109.584351 130.808105,108.451645 130.065399,106.369064 
	C129.938538,103.939941 129.811691,101.510811 129.501373,98.753532 
	C128.680161,99.002525 127.858963,99.251526 126.783272,100.084579 
	C125.552887,103.377052 124.322502,106.669525 122.321167,110.702850 
	C122.077591,110.963043 121.834015,111.223228 120.786674,110.994652 
	C120.235466,107.917519 119.684258,104.840393 119.286797,101.362656 
	C119.361313,101.054054 119.283646,100.790245 119.425392,100.190895 
	C119.463364,99.847679 119.501343,99.504463 119.743881,98.563026 
	C118.844238,96.138115 117.716545,96.194305 116.841713,98.477730 
	C116.333260,99.804855 116.350990,101.333580 115.892128,103.183311 
	C114.608818,106.879257 113.606178,110.706779 111.954468,114.230019 
	C110.603630,117.111458 108.511536,117.571609 106.530998,114.384743 
	C104.036842,110.371414 103.842453,106.455330 107.126579,101.917236 
	C107.512146,101.024338 107.897705,100.131432 108.855843,98.836220 
	C109.295212,97.264290 109.734581,95.692368 110.512299,93.591309 
	C110.761070,92.799416 111.009834,92.007530 111.628510,90.583382 
	C114.629944,84.544601 114.579430,78.250443 113.003250,71.220787 
	C111.942314,70.429642 110.881386,69.638504 109.820442,68.847366 
	C108.572334,70.592400 107.324219,72.337440 106.005585,74.041748 
	C106.005585,74.041748 106.086693,74.048309 105.630852,74.432716 
	C105.442863,74.984688 105.254868,75.536652 105.040276,76.026260 
	C105.040276,76.026260 105.108017,76.023666 104.475388,76.412659 
	C100.704048,79.522797 102.337708,83.658401 102.452568,88.121353 
	C102.299942,88.735428 102.147316,89.349495 101.512650,90.559853 
	C101.005020,95.704292 100.497391,100.848732 99.397873,106.310013 
	C98.935570,107.543571 98.473267,108.777130 97.542572,109.834908 
	C96.952095,109.685982 95.901543,109.301880 95.839569,109.423111 
	C94.766998,111.521370 93.816025,113.681786 91.947060,115.944313 
	C87.911057,116.139084 83.875053,116.333855 79.627121,116.583946 
	C79.627121,116.583946 79.431381,116.687660 79.280342,116.283478 
	C79.280342,116.283478 79.082817,115.899857 78.854538,115.479202 
	C78.653725,115.217308 78.396080,115.036331 78.005623,114.999084 
	C78.005623,114.999084 78.085716,114.936089 78.063385,114.024025 
	C78.069901,110.385208 78.076408,106.746391 78.035370,103.059181 
	C78.035370,103.059181 78.103210,103.060165 78.547256,102.864204 
	C78.824203,102.678825 79.041878,102.439514 79.877861,101.680603 
	C80.335365,101.501526 80.811150,101.132774 81.247345,101.174820 
	C83.671127,101.408409 86.085304,101.741730 88.502762,102.040916 
	C87.364319,103.887978 86.209351,105.725311 85.108978,107.594780 
	C84.975883,107.820908 85.137566,108.220551 85.430801,108.988670 
	C85.592079,109.054771 85.753365,109.120872 85.952492,109.096489 
	C85.952492,109.096489 85.861061,109.060989 86.109550,109.505096 
z"/>
<path fill="#35693B" opacity="1.000000" stroke="none" 
	d="
M54.889385,119.821083 
	C53.660664,119.369308 51.835068,119.268326 51.322266,118.395790 
	C50.096504,116.310158 49.489197,113.861046 47.033138,110.299202 
	C46.512756,111.470764 46.094036,112.702515 45.445423,113.798164 
	C44.690186,115.073921 43.986877,116.654594 42.814293,117.354538 
	C39.988121,119.041557 36.974384,120.979340 33.876385,121.307785 
	C32.925114,121.408638 30.667257,116.706116 30.389784,114.058311 
	C29.831692,108.732666 30.223757,103.307457 30.223757,97.923340 
	C31.124109,97.837944 32.024460,97.752548 32.924812,97.667152 
	C33.482468,104.617004 34.040123,111.566856 34.597775,118.516708 
	C35.371109,118.765671 36.144444,119.014633 36.917778,119.263596 
	C40.180286,114.687881 43.442795,110.112167 47.267300,105.326782 
	C48.710678,106.040710 49.619026,106.940376 50.465897,107.894600 
	C51.317650,108.854317 52.108238,109.868317 52.950752,111.259827 
	C53.014187,112.461914 53.052494,113.262711 53.083443,114.381462 
	C53.071133,115.123451 53.066185,115.547470 52.965778,116.216087 
	C53.258968,117.299042 53.647610,118.137413 54.191925,119.102432 
	C54.538216,119.417252 54.718807,119.614586 54.889385,119.821083 
z"/>
<path fill="#4B7038" opacity="1.000000" stroke="none" 
	d="
M53.061234,115.971497 
	C53.066185,115.547470 53.071133,115.123451 53.361477,114.250191 
	C53.899097,112.653984 54.151321,111.507011 54.403549,110.360039 
	C53.910904,110.526199 53.418266,110.692368 52.925629,110.858528 
	C52.108238,109.868317 51.317650,108.854317 50.465897,107.894600 
	C49.619026,106.940376 48.710678,106.040710 47.497448,105.085052 
	C49.739155,103.692619 49.739155,103.692619 52.469135,107.466881 
	C61.723034,99.957237 61.696026,99.970009 66.612694,110.366425 
	C67.035988,111.261475 68.134666,111.837128 68.919617,112.561157 
	C69.883881,111.365944 70.848145,110.170731 72.058861,108.700600 
	C72.305313,108.425674 72.294800,108.127899 72.294800,108.127899 
	C72.749008,106.705292 73.203217,105.282677 73.879303,103.925453 
	C74.674736,105.653854 75.248314,107.316879 75.883125,109.314804 
	C75.934654,110.102600 75.924942,110.555504 75.631088,110.993080 
	C74.517891,110.977760 73.688843,110.977760 72.939560,110.977760 
	C73.768265,112.841057 74.439201,114.349594 75.110130,115.858139 
	C74.311348,115.818062 73.512558,115.777985 72.311203,115.581207 
	C71.632233,114.892044 71.355835,114.359566 71.079437,113.827087 
	C68.561111,115.424850 66.969971,114.148415 65.550598,112.124794 
	C65.510437,112.067535 64.552208,112.654221 64.022072,112.940643 
	C62.636555,110.801483 61.251038,108.662323 59.865520,106.523163 
	C58.315876,109.058540 56.519413,111.483734 55.318153,114.174644 
	C54.694561,115.571548 55.123451,117.438286 54.983131,119.456932 
	C54.718807,119.614586 54.538216,119.417252 54.168892,118.779251 
	C53.680531,117.543434 53.370884,116.757469 53.061234,115.971497 
z"/>
<path fill="#446D3C" opacity="1.000000" stroke="none" 
	d="
M118.706116,114.041672 
	C117.423149,114.872826 115.822418,115.447906 114.911201,116.578629 
	C110.539398,122.003548 107.296066,121.982620 103.161324,116.378899 
	C102.558128,115.561386 101.504143,115.076492 100.318146,114.693878 
	C99.977547,114.950066 99.938683,114.942741 100.074593,114.682678 
	C100.492325,113.904518 100.774155,113.386421 101.295670,112.783051 
	C102.355873,112.800003 103.176392,112.902222 104.025734,113.056641 
	C104.054558,113.108833 104.005852,112.996597 103.950607,112.603775 
	C104.260185,109.033028 104.625008,105.855110 105.408180,102.728447 
	C106.094345,102.694649 106.362152,102.609581 106.629967,102.524521 
	C103.842453,106.455330 104.036842,110.371414 106.530998,114.384743 
	C108.511536,117.571609 110.603630,117.111458 111.954468,114.230019 
	C113.606178,110.706779 114.608818,106.879257 115.993393,103.164436 
	C116.131325,103.926506 116.167992,104.707451 116.229210,106.011185 
	C116.875862,104.882515 117.228668,104.266724 117.974937,102.964203 
	C117.808273,105.769630 117.687042,107.810310 117.565811,109.850983 
	C117.930023,109.857727 118.294228,109.864464 118.658440,109.871208 
	C118.816643,107.168556 118.974854,104.465912 119.133057,101.763260 
	C119.684258,104.840393 120.235466,107.917519 121.064842,111.349991 
	C120.464050,112.484108 119.585083,113.262894 118.706116,114.041672 
z"/>
<path fill="#3E6837" opacity="1.000000" stroke="none" 
	d="
M154.952286,103.010071 
	C154.487946,99.692963 154.868607,96.362450 158.443283,95.323463 
	C162.724350,94.079155 166.924240,94.742180 170.133972,98.479469 
	C173.077972,101.907364 174.143127,105.638893 172.151169,109.851242 
	C171.608810,110.998123 170.552094,111.901779 169.366577,112.560455 
	C168.956268,111.388275 168.910797,110.572701 168.981049,109.403229 
	C171.204224,104.484756 169.246536,101.484268 165.342087,99.196854 
	C161.434357,96.907524 158.949829,98.569008 157.035675,101.900093 
	C156.295792,102.141098 155.624039,102.575584 154.952286,103.010071 
z"/>
<path fill="#4B7038" opacity="1.000000" stroke="none" 
	d="
M80.324539,98.145073 
	C84.310532,96.191879 88.085022,96.043091 91.344849,99.623627 
	C90.811653,100.999763 90.376564,102.200554 89.941475,103.401337 
	C90.601219,103.537964 91.260956,103.674591 91.920700,103.811218 
	C91.920700,102.630577 91.920700,101.449944 91.920700,100.269302 
	C92.058006,102.269470 92.195320,104.269638 91.967606,106.453758 
	C91.333549,106.738998 91.168190,106.937233 91.106499,107.232407 
	C91.106499,107.232407 91.072212,107.076775 90.949516,107.190987 
	C90.575363,107.690300 90.323914,108.075409 90.072449,108.460510 
	C89.043892,108.936432 88.015335,109.412361 86.730331,109.681580 
	C86.311958,109.279152 86.107681,109.141182 85.861061,109.060989 
	C85.861061,109.060989 85.952492,109.096489 85.884628,109.012009 
	C85.678993,108.668587 85.460953,108.539330 85.162628,108.539772 
	C85.137566,108.220551 84.975883,107.820908 85.108978,107.594780 
	C86.209351,105.725311 87.364319,103.887978 88.502762,102.040916 
	C86.085304,101.741730 83.671127,101.408409 81.247345,101.174820 
	C80.811150,101.132774 80.335365,101.501526 79.290375,101.979195 
	C78.502998,102.538582 78.303101,102.799370 78.103210,103.060165 
	C78.103210,103.060165 78.035370,103.059181 77.856865,103.076584 
	C77.678360,103.093994 77.274918,103.124084 77.034645,103.007538 
	C76.138252,102.621101 75.482132,102.351204 74.826004,102.081314 
	C75.746376,101.105522 76.666748,100.129730 77.962311,99.378571 
	C78.996620,99.813057 79.655739,100.022911 80.314850,100.232773 
	C80.318077,99.536873 80.321304,98.840973 80.324539,98.145073 
M85.288597,99.864479 
	C85.678177,99.560966 86.067757,99.257454 86.457344,98.953949 
	C85.709396,98.787727 84.961449,98.621498 84.213501,98.455269 
	C84.406761,98.903328 84.600021,99.351387 85.288597,99.864479 
z"/>
<path fill="#446D3B" opacity="1.000000" stroke="none" 
	d="
M101.994682,89.963570 
	C102.147316,89.349495 102.299942,88.735428 102.600357,87.454735 
	C103.534775,83.199966 104.321396,79.611816 105.108017,76.023666 
	C105.108017,76.023666 105.040276,76.026260 105.290321,75.874771 
	C105.722481,75.164955 105.904587,74.606628 106.086693,74.048309 
	C106.086693,74.048309 106.005585,74.041748 106.382050,74.059311 
	C107.078964,75.446693 107.834427,76.880241 107.644669,78.175301 
	C106.817123,83.823509 103.425827,89.206749 106.045319,95.537796 
	C106.025597,96.596382 106.011627,97.302620 105.723938,98.148346 
	C104.177483,98.884109 102.904755,99.480385 101.549774,99.678802 
	C101.643250,96.175156 101.818962,93.069359 101.994682,89.963570 
z"/>
<path fill="#C5A854" opacity="1.000000" stroke="none" 
	d="
M106.051071,95.185448 
	C103.425827,89.206749 106.817123,83.823509 107.644669,78.175301 
	C107.834427,76.880241 107.078964,75.446693 106.417313,74.079681 
	C107.324219,72.337440 108.572334,70.592400 109.820450,68.847366 
	C110.881386,69.638504 111.942314,70.429642 113.021019,71.599922 
	C113.038788,71.979057 112.881775,72.114151 112.519165,72.084488 
	C111.571960,72.295601 110.540108,72.444099 110.468605,72.790726 
	C108.931412,80.242294 107.501640,87.716011 106.051071,95.185448 
z"/>
<path fill="#4E6C32" opacity="1.000000" stroke="none" 
	d="
M142.968140,110.215683 
	C140.108521,107.679581 138.324127,108.452797 136.608780,111.745720 
	C135.175903,114.496368 132.982773,116.847610 129.822296,113.059814 
	C129.955734,110.871246 129.973114,109.095093 129.990479,107.318947 
	C130.808105,108.451645 131.625732,109.584351 132.223419,110.412354 
	C136.708603,110.084633 133.917023,100.594711 140.787720,104.818939 
	C140.286407,105.662880 139.434677,106.659012 139.575882,106.828651 
	C140.593796,108.051590 141.812851,109.107101 142.968140,110.215683 
z"/>
<path fill="#466C35" opacity="1.000000" stroke="none" 
	d="
M148.131683,121.058578 
	C146.817093,122.849907 145.855087,125.363640 144.087311,126.226418 
	C142.370255,127.064423 139.713089,126.567146 137.699234,125.928932 
	C136.836304,125.655457 135.769547,122.804359 136.152542,122.395370 
	C137.573166,120.878380 139.558731,119.890465 141.519135,118.963196 
	C141.183228,119.691429 140.660278,120.160278 140.137344,120.629128 
	C140.283356,121.126640 140.429367,121.624161 140.575378,122.121674 
	C143.094147,121.767311 145.612915,121.412941 148.131683,121.058578 
z"/>
<path fill="#3E6A34" opacity="1.000000" stroke="none" 
	d="
M168.865341,109.757126 
	C168.910797,110.572701 168.956268,111.388275 169.016449,112.611969 
	C165.809082,116.582985 162.239197,116.166878 158.483337,113.977516 
	C157.268326,113.269264 155.993256,112.664024 154.384338,111.979553 
	C154.079910,111.606796 154.136841,111.266174 154.464386,110.877960 
	C155.726990,111.200317 156.696899,111.701744 157.722076,111.873810 
	C158.117676,111.940208 158.638794,111.258766 159.435364,111.008896 
	C163.241364,113.639801 166.166824,112.467354 168.865341,109.757126 
z"/>
<path fill="#29673F" opacity="1.000000" stroke="none" 
	d="
M148.404205,120.845657 
	C145.612915,121.412941 143.094147,121.767311 140.575378,122.121674 
	C140.429367,121.624161 140.283356,121.126640 140.137344,120.629128 
	C140.660278,120.160278 141.183228,119.691429 141.850128,119.036980 
	C142.224777,118.726707 142.455490,118.602043 143.138580,118.307419 
	C143.590958,118.137466 143.996979,118.038147 144.330994,118.003326 
	C145.461349,117.568085 146.257660,117.167664 147.279800,116.765350 
	C147.979248,116.313828 148.452896,115.864197 148.926529,115.414566 
	C149.217453,115.144829 149.508377,114.875092 150.301239,114.206078 
	C150.803192,113.806808 150.903168,113.636040 150.903168,113.636040 
	C150.903168,113.636040 151.120193,113.265182 151.437836,113.162613 
	C151.755478,113.060036 152.003571,112.996140 152.211273,113.031586 
	C152.418976,113.067032 152.832214,113.149689 152.794601,113.438629 
	C152.526535,114.664734 152.296097,115.601891 152.065643,116.539047 
	C151.659286,116.964371 151.252930,117.389694 150.420471,118.135468 
	C149.994400,118.455910 149.835312,118.828575 149.675644,119.014648 
	C149.309036,119.458450 149.160736,119.746353 149.071060,120.064445 
	C148.939621,120.253876 148.808182,120.443298 148.404205,120.845657 
z"/>
<path fill="#286A43" opacity="1.000000" stroke="none" 
	d="
M130.027939,106.844009 
	C129.973114,109.095093 129.955734,110.871246 129.678009,112.808907 
	C128.849213,112.085403 128.280777,111.200386 127.112633,110.099976 
	C126.003708,109.260994 125.494499,108.637398 125.124069,107.689240 
	C125.869759,105.592842 126.476662,103.820999 127.263428,101.829468 
	C128.190475,100.767075 128.937668,99.924385 129.684845,99.081696 
	C129.811691,101.510811 129.938538,103.939941 130.027939,106.844009 
z"/>
<path fill="#466B38" opacity="1.000000" stroke="none" 
	d="
M147.053986,116.767242 
	C146.257660,117.167664 145.461349,117.568085 144.326523,117.984558 
	C143.988022,118.000610 143.984329,117.970520 143.984329,117.970520 
	C143.757111,115.649963 143.529907,113.329414 143.135406,110.612274 
	C141.812851,109.107101 140.593796,108.051590 139.575882,106.828651 
	C139.434677,106.659012 140.286407,105.662880 140.951324,105.041534 
	C141.224167,105.033722 141.654312,105.203590 141.905975,105.594009 
	C142.528687,106.276779 142.899719,106.569122 143.270752,106.861465 
	C143.270752,106.861465 143.120163,106.865669 143.242859,107.011627 
	C143.771805,107.420845 144.178024,107.684120 144.584259,107.947395 
	C144.957840,108.325050 145.331436,108.702705 145.937149,109.379631 
	C146.169281,109.678909 146.090302,109.652237 146.090302,109.652237 
	C146.242599,109.906181 146.394882,110.160133 146.733917,111.157623 
	C146.965103,113.523186 147.009552,115.145218 147.053986,116.767242 
z"/>
<path fill="#3D6A38" opacity="1.000000" stroke="none" 
	d="
M119.209930,101.562958 
	C118.974854,104.465912 118.816643,107.168556 118.658440,109.871208 
	C118.294228,109.864464 117.930023,109.857727 117.565811,109.850983 
	C117.687042,107.810310 117.808273,105.769630 117.974937,102.964203 
	C117.228668,104.266724 116.875862,104.882515 116.229210,106.011185 
	C116.167992,104.707451 116.131325,103.926506 116.113304,102.958572 
	C116.350990,101.333580 116.333260,99.804855 116.841713,98.477730 
	C117.716545,96.194305 118.844238,96.138115 119.535934,99.086472 
	C119.236588,99.930351 119.145195,100.250801 119.053795,100.571243 
	C119.283646,100.790245 119.361313,101.054054 119.209930,101.562958 
z"/>
<path fill="#3D6A38" opacity="1.000000" stroke="none" 
	d="
M124.985275,108.013794 
	C125.494499,108.637398 126.003708,109.260994 126.810738,109.991768 
	C125.017906,112.543869 123.602226,116.195549 118.956192,114.280289 
	C119.585083,113.262894 120.464050,112.484108 121.466721,111.594376 
	C121.834015,111.223228 122.077591,110.963043 122.879425,110.192841 
	C123.953552,109.126495 124.469414,108.570145 124.985275,108.013794 
z"/>
<path fill="#2B6A3E" opacity="1.000000" stroke="none" 
	d="
M159.102722,110.918045 
	C158.638794,111.258766 158.117676,111.940208 157.722076,111.873810 
	C156.696899,111.701744 155.726990,111.200317 154.423950,110.489769 
	C154.350433,108.328690 154.587982,106.508224 154.825516,104.687752 
	C154.814117,104.310616 154.802704,103.933472 154.871796,103.283203 
	C155.624039,102.575584 156.295792,102.141098 157.017166,102.297752 
	C157.745453,105.565269 158.424088,108.241653 159.102722,110.918045 
z"/>
<path fill="#4B7038" opacity="1.000000" stroke="none" 
	d="
M92.840729,119.885864 
	C88.505608,120.015945 84.170494,120.146034 79.622223,120.024963 
	C79.409073,119.773819 79.512001,119.723885 79.829163,119.820496 
	C81.748619,120.221291 83.350914,120.525467 84.953217,120.829643 
	C85.062477,120.485550 85.171738,120.141449 85.281006,119.797348 
	C84.544876,119.277245 83.808746,118.757141 83.495613,118.217300 
	C85.613747,118.204781 87.308884,118.212006 88.962463,118.472008 
	C89.132202,122.761009 91.464233,119.136063 92.677368,119.783730 
	C92.731758,119.817879 92.840729,119.885864 92.840729,119.885864 
z"/>
<path fill="#396838" opacity="1.000000" stroke="none" 
	d="
M64.032242,113.253242 
	C64.552208,112.654221 65.510437,112.067535 65.550598,112.124794 
	C66.969971,114.148415 68.561111,115.424850 71.079437,113.827087 
	C71.355835,114.359566 71.632233,114.892044 71.916733,115.680466 
	C71.798340,116.114525 71.671844,116.292641 71.026657,116.711258 
	C69.501244,117.238693 68.494522,117.525620 67.487793,117.812546 
	C67.487793,117.812538 67.252182,117.799881 67.064980,117.472023 
	C66.325096,116.741646 65.772423,116.339134 65.219742,115.936623 
	C65.219742,115.936623 65.087059,115.846420 65.064362,115.544037 
	C64.817680,114.860741 64.593697,114.479836 64.369713,114.098923 
	C64.260620,113.921227 64.151520,113.743538 64.032242,113.253242 
z"/>
<path fill="#C5A854" opacity="1.000000" stroke="none" 
	d="
M113.117653,71.911926 
	C114.579430,78.250443 114.629944,84.544601 111.334244,90.812256 
	C111.039978,91.041138 110.822212,90.865562 110.864029,90.465042 
	C111.564491,84.081062 112.223129,78.097610 112.881775,72.114151 
	C112.881775,72.114151 113.038788,71.979057 113.117653,71.911926 
z"/>
<path fill="#C5A854" opacity="1.000000" stroke="none" 
	d="
M89.004021,118.219231 
	C87.308884,118.212006 85.613747,118.204781 83.182686,118.101334 
	C82.013527,117.908012 81.580284,117.810905 80.950218,117.495018 
	C80.448608,117.027031 80.143829,116.777824 79.839050,116.528625 
	C83.875053,116.333855 87.911057,116.139084 92.490128,115.998474 
	C93.033188,116.052628 93.226738,116.277641 93.080322,116.457092 
	C92.541512,116.880638 92.149117,117.124733 91.412796,117.474548 
	C90.380592,117.793259 89.692307,118.006241 89.004021,118.219231 
z"/>
<path fill="#C5A854" opacity="1.000000" stroke="none" 
	d="
M101.753662,90.261711 
	C101.818962,93.069359 101.643250,96.175156 101.458748,100.077133 
	C101.380943,102.234573 101.311920,103.595825 101.156082,105.216965 
	C101.065834,105.659470 101.062416,105.842102 100.940399,106.151031 
	C100.821815,106.277344 100.543839,106.484222 100.405457,106.361298 
	C100.267082,106.238373 99.989769,105.993172 99.989769,105.993172 
	C100.497391,100.848732 101.005020,95.704292 101.753662,90.261711 
z"/>
<path fill="#426B37" opacity="1.000000" stroke="none" 
	d="
M75.281151,116.238953 
	C74.439201,114.349594 73.768265,112.841057 72.939560,110.977760 
	C73.688843,110.977760 74.517891,110.977760 75.735939,111.304871 
	C76.778526,112.733345 77.432121,113.834717 78.085716,114.936089 
	C78.085716,114.936089 78.005623,114.999084 78.128548,115.200806 
	C78.454010,115.692947 78.731125,115.858727 79.082817,115.899857 
	C79.082817,115.899857 79.280342,116.283478 79.139130,116.652473 
	C78.525986,117.575386 78.054047,118.129295 77.582108,118.683205 
	C77.582108,118.683205 77.146324,118.456490 76.964928,118.320908 
	C76.783531,118.185333 76.850380,118.246567 76.850380,118.246567 
	C76.672523,118.078224 76.494659,117.909889 76.075218,117.496521 
	C75.833649,117.251503 75.894196,117.328056 75.894196,117.328056 
	C75.746857,117.091957 75.599518,116.855858 75.281151,116.238953 
z"/>
<path fill="#C5A854" opacity="1.000000" stroke="none" 
	d="
M78.074554,114.480057 
	C77.432121,113.834717 76.778526,112.733345 76.020081,111.320190 
	C75.924942,110.555504 75.934654,110.102600 75.946945,108.939049 
	C76.391327,106.526955 76.833122,104.825523 77.274918,103.124084 
	C77.274918,103.124084 77.678360,103.093994 77.880646,103.100784 
	C78.076408,106.746391 78.069901,110.385208 78.074554,114.480057 
z"/>
<path fill="#C5A854" opacity="1.000000" stroke="none" 
	d="
M104.791702,76.218163 
	C104.321396,79.611816 103.534775,83.199966 102.560852,87.139488 
	C102.337708,83.658401 100.704048,79.522797 104.791702,76.218163 
z"/>
<path fill="#C5A854" opacity="1.000000" stroke="none" 
	d="
M92.935829,115.940620 
	C93.816025,113.681786 94.766998,111.521370 95.839569,109.423111 
	C95.901543,109.301880 96.952095,109.685982 97.925430,110.060394 
	C98.308281,110.285881 98.605537,110.561127 98.491020,110.820068 
	C98.163292,111.601074 97.950089,112.123146 97.710449,112.675171 
	C97.684006,112.705109 97.626610,112.760689 97.381966,112.946678 
	C96.115616,114.141777 95.093910,115.150879 93.860046,116.183693 
	C93.647888,116.207405 93.226738,116.277641 93.226738,116.277641 
	C93.226738,116.277641 93.033188,116.052628 92.935829,115.940620 
z"/>
<path fill="#446D3C" opacity="1.000000" stroke="none" 
	d="
M125.124069,107.689240 
	C124.469414,108.570145 123.953552,109.126495 123.264893,109.822418 
	C124.322502,106.669525 125.552887,103.377052 126.916626,100.111511 
	C127.061172,100.775352 127.072372,101.412262 127.083572,102.049164 
	C126.476662,103.820999 125.869759,105.592842 125.124069,107.689240 
z"/>
<path fill="#4B7038" opacity="1.000000" stroke="none" 
	d="
M93.080322,116.457092 
	C93.226738,116.277641 93.647888,116.207405 94.140144,116.364761 
	C95.733780,116.629219 96.835167,116.736328 97.941971,116.863281 
	C97.947388,116.883133 97.910530,116.863373 97.910530,116.863373 
	C96.442017,117.829033 94.973511,118.794685 93.172867,119.823105 
	C92.840729,119.885864 92.731758,119.817879 92.605667,119.479233 
	C92.238625,118.550003 91.997673,117.959412 91.756729,117.368820 
	C92.149117,117.124733 92.541512,116.880638 93.080322,116.457092 
z"/>
<path fill="#426B37" opacity="1.000000" stroke="none" 
	d="
M77.034645,103.007538 
	C76.833122,104.825523 76.391327,106.526955 75.885712,108.604141 
	C75.248314,107.316879 74.674736,105.653854 74.087708,103.688461 
	C74.159149,103.145103 74.244049,102.904121 74.577477,102.372223 
	C75.482132,102.351204 76.138252,102.621101 77.034645,103.007538 
z"/>
<path fill="#3E6837" opacity="1.000000" stroke="none" 
	d="
M154.587128,104.972862 
	C154.587982,106.508224 154.350433,108.328690 154.153320,110.537354 
	C154.136841,111.266174 154.079910,111.606796 154.006500,112.202599 
	C153.990021,112.457771 153.845566,112.800125 153.509552,112.925903 
	C153.173538,113.051689 152.832214,113.149689 152.832214,113.149689 
	C152.832214,113.149689 152.418976,113.067032 152.210251,112.760574 
	C152.000961,111.927254 152.000397,111.400391 151.999817,110.873520 
	C152.782776,109.001671 153.565765,107.129822 154.587128,104.972862 
z"/>
<path fill="#4E6C32" opacity="1.000000" stroke="none" 
	d="
M147.279800,116.765350 
	C147.009552,115.145218 146.965103,113.523186 146.893768,111.572029 
	C147.404617,112.440636 147.942368,113.638367 148.703308,115.125336 
	C148.452896,115.864197 147.979248,116.313828 147.279800,116.765350 
z"/>
<path fill="#3D6A38" opacity="1.000000" stroke="none" 
	d="
M127.263428,101.829468 
	C127.072372,101.412262 127.061172,100.775352 127.043869,99.819489 
	C127.858963,99.251526 128.680161,99.002525 129.593109,98.917618 
	C128.937668,99.924385 128.190475,100.767075 127.263428,101.829468 
z"/>
<path fill="#4B7038" opacity="1.000000" stroke="none" 
	d="
M77.752724,118.883118 
	C78.054047,118.129295 78.525986,117.575386 79.214653,116.854568 
	C79.431381,116.687660 79.627121,116.583946 79.733086,116.556282 
	C80.143829,116.777824 80.448608,117.027031 80.790154,117.706039 
	C80.388611,118.665192 79.950310,119.194542 79.512009,119.723892 
	C79.512001,119.723885 79.409073,119.773819 79.357468,119.798500 
	C78.845024,119.576469 78.384186,119.329750 77.752724,118.883118 
z"/>
<path fill="#4B7038" opacity="1.000000" stroke="none" 
	d="
M67.693207,117.932190 
	C68.494522,117.525620 69.501244,117.238693 70.761574,116.903908 
	C69.976334,117.254646 68.937477,117.653244 67.693207,117.932190 
z"/>
<path fill="#C5A854" opacity="1.000000" stroke="none" 
	d="
M110.173958,94.120438 
	C109.734581,95.692368 109.295212,97.264290 108.486198,98.969688 
	C108.116554,99.103157 107.951385,98.965912 108.010803,98.627380 
	C108.660980,96.822441 109.251740,95.356049 109.925201,93.947571 
	C110.007912,94.005486 110.173958,94.120438 110.173958,94.120438 
z"/>
<path fill="#C5A854" opacity="1.000000" stroke="none" 
	d="
M98.159622,110.148285 
	C98.473267,108.777130 98.935570,107.543571 99.693817,106.151596 
	C99.989769,105.993172 100.267082,106.238373 100.329094,106.668503 
	C100.007530,108.080032 99.623955,109.061432 99.076828,110.166473 
	C98.913269,110.290115 98.605537,110.561127 98.605537,110.561127 
	C98.605537,110.561127 98.308281,110.285881 98.159622,110.148285 
z"/>
<path fill="#426B37" opacity="1.000000" stroke="none" 
	d="
M80.011780,98.210434 
	C80.321304,98.840973 80.318077,99.536873 80.314850,100.232773 
	C79.655739,100.022911 78.996620,99.813057 78.173393,99.384674 
	C78.572525,98.869370 79.135780,98.572586 80.011780,98.210434 
z"/>
<path fill="#3E6A34" opacity="1.000000" stroke="none" 
	d="
M152.794601,113.438629 
	C152.832214,113.149689 153.173538,113.051689 153.345383,113.012909 
	C153.147659,114.027412 152.778091,115.080688 152.237091,116.336510 
	C152.296097,115.601891 152.526535,114.664734 152.794601,113.438629 
z"/>
<path fill="#4B7038" opacity="1.000000" stroke="none" 
	d="
M65.280701,116.201950 
	C65.772423,116.339134 66.325096,116.741646 66.988907,117.381851 
	C66.513916,117.235443 65.927788,116.851357 65.280701,116.201950 
z"/>
<path fill="#C5A854" opacity="1.000000" stroke="none" 
	d="
M111.149292,91.128387 
	C111.009834,92.007530 110.761070,92.799416 110.343124,93.855873 
	C110.173958,94.120438 110.007912,94.005486 109.957382,93.625298 
	C110.211975,92.451927 110.517090,91.658745 110.822205,90.865562 
	C110.822212,90.865562 111.039978,91.041138 111.149292,91.128387 
z"/>
<path fill="#3E6A34" opacity="1.000000" stroke="none" 
	d="
M151.912598,111.074341 
	C152.000397,111.400391 152.000961,111.927254 152.002548,112.725128 
	C152.003571,112.996140 151.755478,113.060036 151.628510,113.063599 
	C151.609512,112.469841 151.717453,111.872505 151.912598,111.074341 
z"/>
<path fill="#C5A854" opacity="1.000000" stroke="none" 
	d="
M108.199913,99.170837 
	C107.897705,100.131432 107.512146,101.024338 106.878273,102.220879 
	C106.362152,102.609581 106.094345,102.694649 105.862625,102.343307 
	C106.161705,101.613449 106.424713,101.319992 106.845062,100.765640 
	C107.318726,99.991798 107.635048,99.478851 107.951385,98.965912 
	C107.951385,98.965912 108.116554,99.103157 108.199913,99.170837 
z"/>
<path fill="#446D3C" opacity="1.000000" stroke="none" 
	d="
M99.973160,114.929436 
	C99.406502,115.415947 98.844238,115.923080 98.096252,116.646797 
	C97.910530,116.863373 97.947388,116.883133 98.102325,116.635452 
	C98.817734,115.906097 99.378204,115.424423 99.938683,114.942741 
	C99.938683,114.942741 99.977547,114.950066 99.973160,114.929436 
z"/>
<path fill="#4E6C32" opacity="1.000000" stroke="none" 
	d="
M144.475525,107.722076 
	C144.178024,107.684120 143.771805,107.420845 143.243591,106.936310 
	C143.536667,106.975616 143.951721,107.236191 144.475525,107.722076 
z"/>
<path fill="#C5A854" opacity="1.000000" stroke="none" 
	d="
M105.858772,74.240509 
	C105.904587,74.606628 105.722481,75.164955 105.303619,75.905945 
	C105.254868,75.536652 105.442863,74.984688 105.858772,74.240509 
z"/>
<path fill="#466C35" opacity="1.000000" stroke="none" 
	d="
M143.893097,117.930069 
	C143.984329,117.970520 143.988022,118.000610 143.992493,118.019379 
	C143.996979,118.038147 143.590958,118.137466 143.488403,118.127563 
	C143.430008,117.918144 143.568665,117.842125 143.893097,117.930069 
z"/>
<path fill="#4B7038" opacity="1.000000" stroke="none" 
	d="
M64.427101,114.313065 
	C64.593697,114.479836 64.817680,114.860741 65.075943,115.464661 
	C64.901649,115.300842 64.693069,114.914032 64.427101,114.313065 
z"/>
<path fill="#4E6C32" opacity="1.000000" stroke="none" 
	d="
M143.185120,106.632248 
	C142.899719,106.569122 142.528687,106.276779 142.053055,105.772469 
	C142.332138,105.841339 142.715820,106.122185 143.185120,106.632248 
z"/>
<path fill="#3E6A34" opacity="1.000000" stroke="none" 
	d="
M149.835312,118.828575 
	C149.835312,118.828575 149.994400,118.455910 150.056519,118.384834 
	C150.203400,118.520073 150.196915,118.726387 149.995193,118.942429 
	C149.891220,118.952156 149.835312,118.828575 149.835312,118.828575 
z"/>
<path fill="#426B37" opacity="1.000000" stroke="none" 
	d="
M90.289963,108.358688 
	C90.323914,108.075409 90.575363,107.690300 91.027664,107.175415 
	C90.988159,107.449364 90.747818,107.853104 90.289963,108.358688 
z"/>
<path fill="#4B7038" opacity="1.000000" stroke="none" 
	d="
M76.857018,118.219299 
	C76.850380,118.246567 76.783531,118.185333 76.776489,118.163376 
	C76.769455,118.141418 76.863655,118.192032 76.857018,118.219299 
z"/>
<path fill="#C5A854" opacity="1.000000" stroke="none" 
	d="
M78.325233,102.962189 
	C78.303101,102.799370 78.502998,102.538582 78.951584,102.212029 
	C79.041878,102.439514 78.824203,102.678825 78.325233,102.962189 
z"/>
<path fill="#446D3C" opacity="1.000000" stroke="none" 
	d="
M119.239594,100.381073 
	C119.145195,100.250801 119.236588,99.930351 119.433655,99.385574 
	C119.501343,99.504463 119.463364,99.847679 119.239594,100.381073 
z"/>
<path fill="#466C35" opacity="1.000000" stroke="none" 
	d="
M149.675644,119.014648 
	C149.835312,118.828575 149.891220,118.952156 149.912933,119.015793 
	C149.839478,119.286606 149.744308,119.493790 149.360107,119.882706 
	C149.160736,119.746353 149.309036,119.458450 149.675644,119.014648 
z"/>
<path fill="#C5A854" opacity="1.000000" stroke="none" 
	d="
M78.968674,115.689529 
	C78.731125,115.858727 78.454010,115.692947 78.166542,115.169403 
	C78.396080,115.036331 78.653725,115.217308 78.968674,115.689529 
z"/>
<path fill="#4B7038" opacity="1.000000" stroke="none" 
	d="
M75.892227,117.298500 
	C75.894196,117.328056 75.833649,117.251503 75.822617,117.229813 
	C75.811592,117.208122 75.890266,117.268944 75.892227,117.298500 
z"/>
<path fill="#426B37" opacity="1.000000" stroke="none" 
	d="
M85.296715,108.764221 
	C85.460953,108.539330 85.678993,108.668587 85.865700,109.057259 
	C85.753365,109.120872 85.592079,109.054771 85.296715,108.764221 
z"/>
<path fill="#3E6A34" opacity="1.000000" stroke="none" 
	d="
M150.829681,113.618774 
	C150.903168,113.636040 150.803192,113.806808 150.762283,113.829788 
	C150.721375,113.852760 150.756180,113.601517 150.829681,113.618774 
z"/>
<path fill="#426B37" opacity="1.000000" stroke="none" 
	d="
M91.332245,107.128525 
	C91.168190,106.937233 91.333549,106.738998 91.737122,106.638428 
	C91.871674,106.639137 91.557983,107.024635 91.332245,107.128525 
z"/>
<path fill="#4E6C32" opacity="1.000000" stroke="none" 
	d="
M146.117859,109.675461 
	C146.090302,109.652237 146.169281,109.678909 146.174713,109.700119 
	C146.180145,109.721321 146.145432,109.698685 146.117859,109.675461 
z"/>
<path fill="#426B37" opacity="1.000000" stroke="none" 
	d="
M85.985306,109.283043 
	C86.107681,109.141182 86.311958,109.279152 86.526894,109.587135 
	C86.423119,109.634621 86.266335,109.569862 85.985306,109.283043 
z"/>
<path fill="#3B6A3B" opacity="1.000000" stroke="none" 
	d="
M52.950752,111.259827 
	C53.418266,110.692368 53.910904,110.526199 54.403549,110.360039 
	C54.151321,111.507011 53.899097,112.653984 53.368839,113.932228 
	C53.052494,113.262711 53.014187,112.461914 52.950752,111.259827 
z"/>
<path fill="#3B6A3B" opacity="1.000000" stroke="none" 
	d="
M52.965782,116.216087 
	C53.370884,116.757469 53.680531,117.543434 54.013214,118.652588 
	C53.647610,118.137413 53.258968,117.299042 52.965782,116.216087 
z"/>
<path fill="#426B37" opacity="1.000000" stroke="none" 
	d="
M72.227577,108.173737 
	C72.294800,108.127899 72.305313,108.425674 72.253250,108.401382 
	C72.201195,108.377090 72.160355,108.219574 72.227577,108.173737 
z"/>
<path fill="#236B49" opacity="1.000000" stroke="none" 
	d="
M106.687714,101.026535 
	C106.424713,101.319992 106.161705,101.613449 105.444260,102.292046 
	C104.625008,105.855110 104.260185,109.033028 103.947754,112.605431 
	C104.000137,112.999908 103.996910,113.004440 103.996910,113.004440 
	C103.176392,112.902222 102.355873,112.800003 101.140411,112.552269 
	C100.243774,111.618782 99.742073,110.830803 99.240387,110.042831 
	C99.623955,109.061432 100.007530,108.080032 100.467468,106.791428 
	C100.543839,106.484222 100.821815,106.277344 101.050842,106.046501 
	C101.434395,105.524048 101.422073,105.237862 101.242897,104.957085 
	C101.311920,103.595825 101.380943,102.234573 101.541000,100.474991 
	C102.904755,99.480385 104.177483,98.884109 105.748428,98.459610 
	C106.260338,99.429764 106.474022,100.228149 106.687714,101.026535 
z"/>
<path fill="#426B37" opacity="1.000000" stroke="none" 
	d="
M99.076828,110.166473 
	C99.742073,110.830803 100.243774,111.618782 100.900726,112.637543 
	C100.774155,113.386421 100.492325,113.904518 100.074593,114.682678 
	C99.378204,115.424423 98.817734,115.906097 98.096901,116.615608 
	C96.835167,116.736328 95.733780,116.629219 94.352295,116.341049 
	C95.093910,115.150879 96.115616,114.141777 97.454971,113.024948 
	C97.772614,112.917236 98.025284,112.906525 98.025284,112.906525 
	C98.025284,112.906525 97.736885,112.645226 97.736885,112.645226 
	C97.950089,112.123146 98.163292,111.601074 98.491020,110.820068 
	C98.605537,110.561127 98.913269,110.290115 99.076828,110.166473 
z"/>
<path fill="#236B49" opacity="1.000000" stroke="none" 
	d="
M104.002991,112.998253 
	C104.005852,112.996597 104.054558,113.108833 104.025734,113.056641 
	C103.996910,113.004440 104.000137,112.999908 104.002991,112.998253 
z"/>
<path fill="#E7A53E" opacity="1.000000" stroke="none" 
	d="
M159.435364,111.008896 
	C158.424088,108.241653 157.745453,105.565269 157.085327,102.491226 
	C158.949829,98.569008 161.434357,96.907524 165.342087,99.196854 
	C169.246536,101.484268 171.204224,104.484756 168.981049,109.403229 
	C166.166824,112.467354 163.241364,113.639801 159.435364,111.008896 
z"/>
<path fill="#426B37" opacity="1.000000" stroke="none" 
	d="
M91.909523,100.175697 
	C91.920700,101.449944 91.920700,102.630577 91.920700,103.811218 
	C91.260956,103.674591 90.601219,103.537964 89.941475,103.401337 
	C90.376564,102.200554 90.811653,100.999763 91.483833,99.908638 
	C91.720924,100.018295 91.898346,100.082092 91.909523,100.175697 
z"/>
<path fill="#426B37" opacity="1.000000" stroke="none" 
	d="
M85.040939,99.831963 
	C84.600021,99.351387 84.406761,98.903328 84.213501,98.455276 
	C84.961449,98.621498 85.709396,98.787727 86.457344,98.953941 
	C86.067757,99.257454 85.678177,99.560966 85.040939,99.831963 
z"/>
<path fill="#406934" opacity="1.000000" stroke="none" 
	d="
M106.845055,100.765640 
	C106.474022,100.228149 106.260338,99.429764 106.022156,98.320114 
	C106.011627,97.302620 106.025597,96.596382 106.045319,95.537796 
	C107.501640,87.716011 108.931412,80.242294 110.468605,72.790726 
	C110.540108,72.444099 111.571960,72.295601 112.519165,72.084488 
	C112.223129,78.097610 111.564491,84.081062 110.864029,90.465042 
	C110.517090,91.658745 110.211975,92.451927 109.874672,93.567383 
	C109.251740,95.356049 108.660980,96.822441 108.010803,98.627373 
	C107.635048,99.478851 107.318726,99.991798 106.845055,100.765640 
z"/>
<path fill="#426B37" opacity="1.000000" stroke="none" 
	d="
M79.829163,119.820503 
	C79.950310,119.194542 80.388611,118.665192 80.986984,117.924820 
	C81.580284,117.810905 82.013527,117.908012 82.759689,118.121078 
	C83.808746,118.757141 84.544876,119.277245 85.281006,119.797348 
	C85.171738,120.141449 85.062477,120.485550 84.953217,120.829643 
	C83.350914,120.525467 81.748619,120.221291 79.829163,119.820503 
z"/>
<path fill="#426B37" opacity="1.000000" stroke="none" 
	d="
M91.412796,117.474548 
	C91.997673,117.959412 92.238625,118.550003 92.551285,119.445084 
	C91.464233,119.136063 89.132202,122.761009 88.962463,118.472008 
	C89.692307,118.006241 90.380592,117.793259 91.412796,117.474548 
z"/>
<path fill="#446D3B" opacity="1.000000" stroke="none" 
	d="
M101.156082,105.216965 
	C101.422073,105.237862 101.434395,105.524048 101.169434,105.920197 
	C101.062416,105.842102 101.065834,105.659470 101.156082,105.216965 
z"/>
<path fill="#446D3C" opacity="1.000000" stroke="none" 
	d="
M97.710449,112.675171 
	C97.736885,112.645226 98.025284,112.906525 98.025284,112.906525 
	C98.025284,112.906525 97.772614,112.917236 97.699615,112.838959 
	C97.626610,112.760689 97.684006,112.705109 97.710449,112.675171 
z"/>
</svg>