<svg version="1.1" id="Layer_1" xmlns="http://www.w3.org/2000/svg" xmlns:xlink="http://www.w3.org/1999/xlink" x="0px" y="0px"
	 width="100%" viewBox="0 0 1200 630" enable-background="new 0 0 1200 630" xml:space="preserve">
<path fill="#000000" opacity="1.000000" stroke="none" 
	d="
M817.000000,631.000000 
	C544.666687,631.000000 272.833374,631.000000 1.000036,631.000000 
	C1.000024,421.000031 1.000024,211.000061 1.000012,1.000065 
	C400.999969,1.000043 800.999939,1.000043 1201.000000,1.000022 
	C1201.000000,210.999939 1201.000000,420.999878 1201.000000,630.999878 
	C1073.166626,631.000000 945.333313,631.000000 817.000000,631.000000 
M510.708160,373.500183 
	C510.707855,359.503876 510.811523,345.506622 510.679596,331.511566 
	C510.531586,315.807251 500.364777,305.479523 484.664734,305.364899 
	C460.839050,305.190918 437.010437,305.210846 413.184387,305.357910 
	C397.237427,305.456329 387.078125,315.883118 387.050201,331.850037 
	C387.009094,355.343689 387.016815,378.837494 387.048218,402.331207 
	C387.069916,418.543640 397.401245,428.941101 413.524109,428.965088 
	C437.017822,429.000000 460.511627,428.994812 484.005341,428.966583 
	C500.136688,428.947205 510.552612,418.624329 510.691650,402.492615 
	C510.772064,393.162445 510.707458,383.831055 510.708160,373.500183 
M605.072876,356.542542 
	C626.446228,326.099640 611.692505,289.090393 575.176270,284.149323 
	C559.207703,281.988556 542.703491,283.786011 526.347168,283.786011 
	C526.347168,330.574097 526.347168,377.778717 526.347168,424.807312 
	C532.753418,424.807312 538.833130,424.807312 545.269043,424.807312 
	C545.269043,407.399475 545.269043,390.311371 545.269043,372.893524 
	C552.776001,372.893524 559.924072,373.103912 567.049988,372.796936 
	C570.195312,372.661469 571.756165,373.809174 573.338928,376.338440 
	C582.867432,391.564362 592.542908,406.698914 602.276733,421.794678 
	C603.155151,423.157074 604.751587,424.910156 606.090332,424.977539 
	C612.641663,425.307281 619.218750,425.126953 626.547852,425.126953 
	C620.302063,415.099701 614.535217,405.821106 608.747559,396.555481 
	C602.869751,387.145569 596.971313,377.748505 591.419495,368.884827 
	C596.040039,364.771240 600.340881,360.942322 605.072876,356.542542 
M467.499634,296.680267 
	C472.827545,296.680206 478.156067,296.733704 483.483215,296.670074 
	C499.577026,296.477966 508.884888,287.158417 508.913544,271.135559 
	C508.954651,248.159363 508.948822,225.182999 508.915436,202.206757 
	C508.891907,186.023499 499.735596,176.721909 483.649048,176.670609 
	C460.506500,176.596817 437.363434,176.606354 414.220795,176.667908 
	C397.947723,176.711182 388.938232,185.777405 388.914795,202.038010 
	C388.882172,224.681259 389.389648,247.338486 388.738373,269.963043 
	C388.294922,285.367523 397.923431,297.159271 415.554169,296.762817 
	C432.528076,296.381165 449.517242,296.680267 467.499634,296.680267 
M247.771301,383.500061 
	C247.771210,366.352356 247.865234,349.204010 247.742020,332.057190 
	C247.638519,317.654297 238.831909,307.497040 225.231934,307.271271 
	C200.266846,306.856903 175.286743,306.907745 150.319458,307.247101 
	C137.528442,307.420929 128.065170,316.824738 127.919563,329.374573 
	C127.626038,354.674835 127.631737,379.983765 127.947212,405.283691 
	C128.098236,417.395538 137.572586,426.827026 149.631332,426.962769 
	C174.932236,427.247528 200.240158,427.225342 225.541855,426.981689 
	C236.954376,426.871765 245.946747,418.739349 247.165787,407.427948 
	C247.982300,399.851593 247.611053,392.147186 247.771301,383.500061 
M258.985138,324.695160 
	C258.714905,327.173462 258.216248,329.651215 258.209900,332.130188 
	C258.150116,355.447632 258.111389,378.765503 258.196625,402.082764 
	C258.253418,417.610291 267.613953,427.050995 283.014282,427.107880 
	C306.498077,427.194611 329.982666,427.193390 353.466492,427.109436 
	C368.813660,427.054565 378.099487,417.873505 378.165344,402.630341 
	C378.267517,378.980103 378.268860,355.328766 378.165283,331.678528 
	C378.098755,316.484222 368.680634,307.182281 353.431458,307.137146 
	C329.947540,307.067627 306.463135,307.075745 282.979156,307.135834 
	C270.881256,307.166809 263.398407,312.516449 258.985138,324.695160 
M751.120972,396.499969 
	C751.120972,405.942383 751.120972,415.384796 751.120972,424.763550 
	C757.564453,424.763550 763.439392,424.763550 769.574768,424.763550 
	C769.574768,415.741425 769.498108,407.092987 769.641418,398.448212 
	C769.669067,396.780273 770.071045,394.641388 771.146057,393.562347 
	C773.799194,390.899231 776.943176,388.725220 780.179993,386.121216 
	C787.987610,398.272522 795.493958,410.009674 803.084778,421.692017 
	C803.930237,422.993286 805.210876,424.907043 806.366333,424.963348 
	C812.875610,425.280579 819.408264,425.116455 826.720154,425.116455 
	C815.015076,408.102417 803.929382,391.988647 792.799744,375.811066 
	C802.981506,367.601288 812.817993,359.669891 822.847839,351.582611 
	C818.971985,348.187286 815.353760,345.017639 811.634705,341.759613 
	C797.745850,352.902893 784.044067,363.896118 769.468384,375.590424 
	C769.468384,340.696442 769.468384,306.856293 769.468384,272.932739 
	C763.087769,272.932739 757.300842,272.932739 751.120972,272.932739 
	C751.120972,313.923370 751.120972,354.711639 751.120972,396.499969 
M995.748413,354.270081 
	C983.885559,369.052094 981.861328,391.361023 990.888489,407.831696 
	C1002.570129,429.145660 1033.951782,433.822449 1052.715698,417.038391 
	C1054.226074,415.687317 1055.684326,414.277954 1058.049072,412.073090 
	C1058.049072,417.241943 1058.049072,421.121185 1058.049072,424.847748 
	C1064.296631,424.847748 1070.045654,424.847748 1075.709229,424.847748 
	C1075.709229,397.675232 1075.709229,370.787323 1075.709229,344.163635 
	C1069.940918,344.163635 1064.518921,344.163635 1059.207886,344.163635 
	C1058.686157,348.209595 1058.210327,351.899200 1057.691528,355.922272 
	C1038.921753,335.800903 1014.509583,335.084320 995.748413,354.270081 
M670.790466,343.208771 
	C649.535828,352.394287 638.713013,370.887268 642.369690,391.513336 
	C647.051880,417.923553 669.307922,430.103424 694.068542,426.515686 
	C701.806824,425.394440 708.953369,422.475708 715.450256,417.710693 
	C712.447388,413.031616 709.713623,408.771912 706.973267,404.501984 
	C690.123962,416.477936 669.819336,411.310181 664.506836,398.271393 
	C685.737915,390.813873 706.962158,383.358765 728.082031,375.940277 
	C724.982239,349.489380 698.523865,334.282227 670.790466,343.208771 
M857.201843,339.405334 
	C857.129272,340.835175 857.056702,342.265015 856.959412,344.182190 
	C851.892090,344.182190 847.170471,344.182190 842.491577,344.182190 
	C842.491577,349.124756 842.491577,353.549591 842.491577,358.527283 
	C847.439880,358.527283 852.169250,358.527283 857.305176,358.527283 
	C857.305176,380.982239 857.305176,402.880920 857.305176,424.887451 
	C863.660034,424.887451 869.570801,424.887451 876.051575,424.887451 
	C876.051575,402.630402 876.051575,380.617584 876.051575,358.188782 
	C883.696655,358.188782 890.770813,358.188782 897.681641,358.188782 
	C897.681641,353.186951 897.681641,348.616486 897.681641,343.702179 
	C890.246216,343.702179 883.154846,343.702179 875.665405,343.702179 
	C875.665405,331.604492 875.665405,319.862396 875.665405,308.226624 
	C869.334717,308.226624 863.425110,308.226624 857.201904,308.226624 
	C857.201904,318.499084 857.201904,328.459686 857.201843,339.405334 
M942.598267,373.348267 
	C948.682373,363.140594 957.934082,358.628052 969.870972,358.651855 
	C970.163513,352.508026 970.442749,346.644226 970.743286,340.333405 
	C956.187683,342.407898 945.893311,349.851715 938.122070,362.120972 
	C937.578369,355.523834 937.105652,349.787231 936.634094,344.065491 
	C931.028503,344.065491 925.758911,344.065491 920.615723,344.065491 
	C920.615723,371.191742 920.615723,398.050354 920.615723,424.911072 
	C926.747009,424.911072 932.517151,424.911072 938.760864,424.911072 
	C938.760864,413.251740 938.403015,401.799774 938.915527,390.386963 
	C939.162659,384.884216 941.048828,379.455048 942.598267,373.348267 
z"/>
<path fill="#FAFAFA" opacity="1.000000" stroke="none" 
	d="
M510.708160,374.000183 
	C510.707458,383.831055 510.772064,393.162445 510.691650,402.492615 
	C510.552612,418.624329 500.136688,428.947205 484.005341,428.966583 
	C460.511627,428.994812 437.017822,429.000000 413.524109,428.965088 
	C397.401245,428.941101 387.069916,418.543640 387.048218,402.331207 
	C387.016815,378.837494 387.009094,355.343689 387.050201,331.850037 
	C387.078125,315.883118 397.237427,305.456329 413.184387,305.357910 
	C437.010437,305.210846 460.839050,305.190918 484.664734,305.364899 
	C500.364777,305.479523 510.531586,315.807251 510.679596,331.511566 
	C510.811523,345.506622 510.707855,359.503876 510.708160,374.000183 
M441.500000,323.045013 
	C432.177216,323.045044 422.854309,323.014038 413.531738,323.055878 
	C407.232422,323.084167 404.854645,325.457275 404.846375,331.815826 
	C404.815582,355.455688 404.813049,379.095703 404.850433,402.735565 
	C404.860168,408.892029 407.120453,411.146973 413.268066,411.155823 
	C436.907928,411.189819 460.547943,411.185120 484.187836,411.158234 
	C490.547363,411.151001 492.955872,408.785675 492.964325,402.502014 
	C492.995880,379.028625 492.992615,355.555084 492.967834,332.081665 
	C492.960846,325.484406 490.537323,323.068573 483.953094,323.054352 
	C470.135437,323.024506 456.317719,323.045135 441.500000,323.045013 
z"/>
<path fill="#FDFDFD" opacity="1.000000" stroke="none" 
	d="
M604.857300,356.827942 
	C600.340881,360.942322 596.040039,364.771240 591.419495,368.884827 
	C596.971313,377.748505 602.869751,387.145569 608.747559,396.555481 
	C614.535217,405.821106 620.302063,415.099701 626.547852,425.126953 
	C619.218750,425.126953 612.641663,425.307281 606.090332,424.977539 
	C604.751587,424.910156 603.155151,423.157074 602.276733,421.794678 
	C592.542908,406.698914 582.867432,391.564362 573.338928,376.338440 
	C571.756165,373.809174 570.195312,372.661469 567.049988,372.796936 
	C559.924072,373.103912 552.776001,372.893524 545.269043,372.893524 
	C545.269043,390.311371 545.269043,407.399475 545.269043,424.807312 
	C538.833130,424.807312 532.753418,424.807312 526.347168,424.807312 
	C526.347168,377.778717 526.347168,330.574097 526.347168,283.786011 
	C542.703491,283.786011 559.207703,281.988556 575.176270,284.149323 
	C611.692505,289.090393 626.446228,326.099640 604.857300,356.827942 
M594.246216,323.353790 
	C591.953918,311.150787 584.901245,303.349091 572.648315,301.872437 
	C563.702698,300.794342 554.522644,301.661469 545.339355,301.661469 
	C545.339355,319.090942 545.339355,336.486053 545.339355,354.155212 
	C553.378784,354.155212 561.178467,354.397766 568.958069,354.105469 
	C585.940430,353.467377 596.314026,341.138367 594.246216,323.353790 
z"/>
<path fill="#FBFBFB" opacity="1.000000" stroke="none" 
	d="
M466.999695,296.680267 
	C449.517242,296.680267 432.528076,296.381165 415.554169,296.762817 
	C397.923431,297.159271 388.294922,285.367523 388.738373,269.963043 
	C389.389648,247.338486 388.882172,224.681259 388.914795,202.038010 
	C388.938232,185.777405 397.947723,176.711182 414.220795,176.667908 
	C437.363434,176.606354 460.506500,176.596817 483.649048,176.670609 
	C499.735596,176.721909 508.891907,186.023499 508.915436,202.206757 
	C508.948822,225.182999 508.954651,248.159363 508.913544,271.135559 
	C508.884888,287.158417 499.577026,296.477966 483.483215,296.670074 
	C478.156067,296.733704 472.827545,296.680206 466.999695,296.680267 
M486.792603,278.869385 
	C490.639862,277.832489 491.167084,274.968292 491.157135,271.513458 
	C491.090485,248.380417 491.131622,225.247101 491.116974,202.113876 
	C491.112854,195.616119 489.712952,194.201523 483.255920,194.196808 
	C460.289124,194.179993 437.322327,194.178757 414.355530,194.198181 
	C407.920959,194.203613 406.539093,195.599350 406.531067,202.213028 
	C406.503174,225.179794 406.500763,248.146637 406.532776,271.113373 
	C406.541840,277.635925 407.916931,278.949768 414.505035,278.952148 
	C438.303925,278.960754 462.102814,278.946930 486.792603,278.869385 
z"/>
<path fill="#FCFCFC" opacity="1.000000" stroke="none" 
	d="
M247.771301,384.000061 
	C247.611053,392.147186 247.982300,399.851593 247.165787,407.427948 
	C245.946747,418.739349 236.954376,426.871765 225.541855,426.981689 
	C200.240158,427.225342 174.932236,427.247528 149.631332,426.962769 
	C137.572586,426.827026 128.098236,417.395538 127.947212,405.283691 
	C127.631737,379.983765 127.626038,354.674835 127.919563,329.374573 
	C128.065170,316.824738 137.528442,307.420929 150.319458,307.247101 
	C175.286743,306.907745 200.266846,306.856903 225.231934,307.271271 
	C238.831909,307.497040 247.638519,317.654297 247.742020,332.057190 
	C247.865234,349.204010 247.771210,366.352356 247.771301,384.000061 
M230.014404,364.500000 
	C230.014359,353.668091 230.043106,342.836090 230.002258,332.004333 
	C229.981461,326.488007 228.413025,324.899872 222.878036,324.892212 
	C199.381210,324.859741 175.884262,324.857758 152.387436,324.892548 
	C146.929382,324.900604 145.277420,326.546814 145.266769,332.093231 
	C145.222000,355.423370 145.224503,378.753693 145.264450,402.083862 
	C145.274384,407.883484 146.901382,409.528137 152.731476,409.540253 
	C176.061600,409.588654 199.391953,409.591248 222.722076,409.539368 
	C228.532166,409.526428 229.992020,407.929932 230.005615,401.995117 
	C230.033508,389.830139 230.014252,377.665039 230.014404,364.500000 
z"/>
<path fill="#FCFCFC" opacity="1.000000" stroke="none" 
	d="
M259.066772,324.292969 
	C263.398407,312.516449 270.881256,307.166809 282.979156,307.135834 
	C306.463135,307.075745 329.947540,307.067627 353.431458,307.137146 
	C368.680634,307.182281 378.098755,316.484222 378.165283,331.678528 
	C378.268860,355.328766 378.267517,378.980103 378.165344,402.630341 
	C378.099487,417.873505 368.813660,427.054565 353.466492,427.109436 
	C329.982666,427.193390 306.498077,427.194611 283.014282,427.107880 
	C267.613953,427.050995 258.253418,417.610291 258.196625,402.082764 
	C258.111389,378.765503 258.150116,355.447632 258.209900,332.130188 
	C258.216248,329.651215 258.714905,327.173462 259.066772,324.292969 
M360.691406,334.748169 
	C360.675079,325.634613 359.913116,324.877411 350.732117,324.877014 
	C328.432617,324.876068 306.133087,324.866638 283.833588,324.883667 
	C277.208862,324.888702 275.963318,326.134216 275.959442,332.714935 
	C275.945984,355.513672 275.950012,378.312439 275.956726,401.111176 
	C275.958832,408.331818 277.138672,409.548676 284.315735,409.554718 
	C306.948059,409.573730 329.580414,409.574188 352.212738,409.554230 
	C359.339386,409.547943 360.680023,408.201233 360.685364,401.095245 
	C360.701752,379.294983 360.691376,357.494720 360.691406,334.748169 
z"/>
<path fill="#F8F8F8" opacity="1.000000" stroke="none" 
	d="
M751.120972,395.999939 
	C751.120972,354.711639 751.120972,313.923370 751.120972,272.932739 
	C757.300842,272.932739 763.087769,272.932739 769.468384,272.932739 
	C769.468384,306.856293 769.468384,340.696442 769.468384,375.590424 
	C784.044067,363.896118 797.745850,352.902893 811.634705,341.759613 
	C815.353760,345.017639 818.971985,348.187286 822.847839,351.582611 
	C812.817993,359.669891 802.981506,367.601288 792.799744,375.811066 
	C803.929382,391.988647 815.015076,408.102417 826.720154,425.116455 
	C819.408264,425.116455 812.875610,425.280579 806.366333,424.963348 
	C805.210876,424.907043 803.930237,422.993286 803.084778,421.692017 
	C795.493958,410.009674 787.987610,398.272522 780.179993,386.121216 
	C776.943176,388.725220 773.799194,390.899231 771.146057,393.562347 
	C770.071045,394.641388 769.669067,396.780273 769.641418,398.448212 
	C769.498108,407.092987 769.574768,415.741425 769.574768,424.763550 
	C763.439392,424.763550 757.564453,424.763550 751.120972,424.763550 
	C751.120972,415.384796 751.120972,405.942383 751.120972,395.999939 
z"/>
<path fill="#FCFCFC" opacity="1.000000" stroke="none" 
	d="
M995.979736,353.998535 
	C1014.509583,335.084320 1038.921753,335.800903 1057.691528,355.922272 
	C1058.210327,351.899200 1058.686157,348.209595 1059.207886,344.163635 
	C1064.518921,344.163635 1069.940918,344.163635 1075.709229,344.163635 
	C1075.709229,370.787323 1075.709229,397.675232 1075.709229,424.847748 
	C1070.045654,424.847748 1064.296631,424.847748 1058.049072,424.847748 
	C1058.049072,421.121185 1058.049072,417.241943 1058.049072,412.073090 
	C1055.684326,414.277954 1054.226074,415.687317 1052.715698,417.038391 
	C1033.951782,433.822449 1002.570129,429.145660 990.888489,407.831696 
	C981.861328,391.361023 983.885559,369.052094 995.979736,353.998535 
M1037.721680,356.234375 
	C1036.566284,356.089752 1035.413940,355.911774 1034.255005,355.805603 
	C1020.303772,354.527954 1008.803772,361.982880 1005.076111,374.709442 
	C1001.086182,388.331940 1007.128540,403.028748 1019.375000,409.089325 
	C1038.322632,418.466125 1059.079224,404.528229 1058.048340,385.463501 
	C1057.142334,368.710815 1052.800415,361.099274 1037.721680,356.234375 
z"/>
<path fill="#FBFBFB" opacity="1.000000" stroke="none" 
	d="
M671.167603,343.101624 
	C698.523865,334.282227 724.982239,349.489380 728.082031,375.940277 
	C706.962158,383.358765 685.737915,390.813873 664.506836,398.271393 
	C669.819336,411.310181 690.123962,416.477936 706.973267,404.501984 
	C709.713623,408.771912 712.447388,413.031616 715.450256,417.710693 
	C708.953369,422.475708 701.806824,425.394440 694.068542,426.515686 
	C669.307922,430.103424 647.051880,417.923553 642.369690,391.513336 
	C638.713013,370.887268 649.535828,352.394287 671.167603,343.101624 
M670.518860,359.909393 
	C661.953064,366.940338 659.033875,376.052094 660.338196,387.351898 
	C676.256165,381.474457 691.767334,375.747192 707.293579,370.014374 
	C701.087036,354.986938 685.632019,350.620300 670.518860,359.909393 
z"/>
<path fill="#FAFAFA" opacity="1.000000" stroke="none" 
	d="
M857.201904,338.912842 
	C857.201904,328.459686 857.201904,318.499084 857.201904,308.226624 
	C863.425110,308.226624 869.334717,308.226624 875.665405,308.226624 
	C875.665405,319.862396 875.665405,331.604492 875.665405,343.702179 
	C883.154846,343.702179 890.246216,343.702179 897.681641,343.702179 
	C897.681641,348.616486 897.681641,353.186951 897.681641,358.188782 
	C890.770813,358.188782 883.696655,358.188782 876.051575,358.188782 
	C876.051575,380.617584 876.051575,402.630402 876.051575,424.887451 
	C869.570801,424.887451 863.660034,424.887451 857.305176,424.887451 
	C857.305176,402.880920 857.305176,380.982239 857.305176,358.527283 
	C852.169250,358.527283 847.439880,358.527283 842.491577,358.527283 
	C842.491577,353.549591 842.491577,349.124756 842.491577,344.182190 
	C847.170471,344.182190 851.892090,344.182190 856.959412,344.182190 
	C857.056702,342.265015 857.129272,340.835175 857.201904,338.912842 
z"/>
<path fill="#F8F8F8" opacity="1.000000" stroke="none" 
	d="
M942.395508,373.670410 
	C941.048828,379.455048 939.162659,384.884216 938.915527,390.386963 
	C938.403015,401.799774 938.760864,413.251740 938.760864,424.911072 
	C932.517151,424.911072 926.747009,424.911072 920.615723,424.911072 
	C920.615723,398.050354 920.615723,371.191742 920.615723,344.065491 
	C925.758911,344.065491 931.028503,344.065491 936.634094,344.065491 
	C937.105652,349.787231 937.578369,355.523834 938.122070,362.120972 
	C945.893311,349.851715 956.187683,342.407898 970.743286,340.333405 
	C970.442749,346.644226 970.163513,352.508026 969.870972,358.651855 
	C957.934082,358.628052 948.682373,363.140594 942.395508,373.670410 
z"/>
<path fill="#000000" opacity="1.000000" stroke="none" 
	d="
M442.000000,323.045013 
	C456.317719,323.045135 470.135437,323.024506 483.953094,323.054352 
	C490.537323,323.068573 492.960846,325.484406 492.967834,332.081665 
	C492.992615,355.555084 492.995880,379.028625 492.964325,402.502014 
	C492.955872,408.785675 490.547363,411.151001 484.187836,411.158234 
	C460.547943,411.185120 436.907928,411.189819 413.268066,411.155823 
	C407.120453,411.146973 404.860168,408.892029 404.850433,402.735565 
	C404.813049,379.095703 404.815582,355.455688 404.846375,331.815826 
	C404.854645,325.457275 407.232422,323.084167 413.531738,323.055878 
	C422.854309,323.014038 432.177216,323.045044 442.000000,323.045013 
z"/>
<path fill="#030303" opacity="1.000000" stroke="none" 
	d="
M594.337158,323.762451 
	C596.314026,341.138367 585.940430,353.467377 568.958069,354.105469 
	C561.178467,354.397766 553.378784,354.155212 545.339355,354.155212 
	C545.339355,336.486053 545.339355,319.090942 545.339355,301.661469 
	C554.522644,301.661469 563.702698,300.794342 572.648315,301.872437 
	C584.901245,303.349091 591.953918,311.150787 594.337158,323.762451 
z"/>
<path fill="#010101" opacity="1.000000" stroke="none" 
	d="
M486.347168,278.905457 
	C462.102814,278.946930 438.303925,278.960754 414.505035,278.952148 
	C407.916931,278.949768 406.541840,277.635925 406.532776,271.113373 
	C406.500763,248.146637 406.503174,225.179794 406.531067,202.213028 
	C406.539093,195.599350 407.920959,194.203613 414.355530,194.198181 
	C437.322327,194.178757 460.289124,194.179993 483.255920,194.196808 
	C489.712952,194.201523 491.112854,195.616119 491.116974,202.113876 
	C491.131622,225.247101 491.090485,248.380417 491.157135,271.513458 
	C491.167084,274.968292 490.639862,277.832489 486.347168,278.905457 
z"/>
<path fill="#020202" opacity="1.000000" stroke="none" 
	d="
M230.014404,365.000000 
	C230.014252,377.665039 230.033508,389.830139 230.005615,401.995117 
	C229.992020,407.929932 228.532166,409.526428 222.722076,409.539368 
	C199.391953,409.591248 176.061600,409.588654 152.731476,409.540253 
	C146.901382,409.528137 145.274384,407.883484 145.264450,402.083862 
	C145.224503,378.753693 145.222000,355.423370 145.266769,332.093231 
	C145.277420,326.546814 146.929382,324.900604 152.387436,324.892548 
	C175.884262,324.857758 199.381210,324.859741 222.878036,324.892212 
	C228.413025,324.899872 229.981461,326.488007 230.002258,332.004333 
	C230.043106,342.836090 230.014359,353.668091 230.014404,365.000000 
z"/>
<path fill="#020202" opacity="1.000000" stroke="none" 
	d="
M360.691406,335.221313 
	C360.691376,357.494720 360.701752,379.294983 360.685364,401.095245 
	C360.680023,408.201233 359.339386,409.547943 352.212738,409.554230 
	C329.580414,409.574188 306.948059,409.573730 284.315735,409.554718 
	C277.138672,409.548676 275.958832,408.331818 275.956726,401.111176 
	C275.950012,378.312439 275.945984,355.513672 275.959442,332.714935 
	C275.963318,326.134216 277.208862,324.888702 283.833588,324.883667 
	C306.133087,324.866638 328.432617,324.876068 350.732117,324.877014 
	C359.913116,324.877411 360.675079,325.634613 360.691406,335.221313 
z"/>
<path fill="#020202" opacity="1.000000" stroke="none" 
	d="
M1038.121948,356.381470 
	C1052.800415,361.099274 1057.142334,368.710815 1058.048340,385.463501 
	C1059.079224,404.528229 1038.322632,418.466125 1019.375000,409.089325 
	C1007.128540,403.028748 1001.086182,388.331940 1005.076111,374.709442 
	C1008.803772,361.982880 1020.303772,354.527954 1034.255005,355.805603 
	C1035.413940,355.911774 1036.566284,356.089752 1038.121948,356.381470 
z"/>
<path fill="#040404" opacity="1.000000" stroke="none" 
	d="
M670.797119,359.670990 
	C685.632019,350.620300 701.087036,354.986938 707.293579,370.014374 
	C691.767334,375.747192 676.256165,381.474457 660.338196,387.351898 
	C659.033875,376.052094 661.953064,366.940338 670.797119,359.670990 
z"/>
</svg>